<?xml version="1.0" encoding="UTF-8" standalone="no"?>
<!DOCTYPE svg PUBLIC "-//W3C//DTD SVG 1.1//EN"
 "http://www.w3.org/Graphics/SVG/1.1/DTD/svg11.dtd">
<!-- Generated by graphviz version 2.40.1 (20161225.0304)
 -->
<!-- Title: snakemake_dag Pages: 1 -->
<svg width="207pt" height="188pt"
 viewBox="0.00 0.00 206.50 188.00" xmlns="http://www.w3.org/2000/svg" xmlns:xlink="http://www.w3.org/1999/xlink">
<g id="graph0" class="graph" transform="scale(1 1) rotate(0) translate(4 184)">
<title>snakemake_dag</title>
<polygon fill="#ffffff" stroke="transparent" points="-4,4 -4,-184 202.5,-184 202.5,4 -4,4"/>
<!-- 0 -->
<g id="node1" class="node">
<title>0</title>
<path fill="none" stroke="#d85656" stroke-width="2" d="M88,-36C88,-36 58,-36 58,-36 52,-36 46,-30 46,-24 46,-24 46,-12 46,-12 46,-6 52,0 58,0 58,0 88,0 88,0 94,0 100,-6 100,-12 100,-12 100,-24 100,-24 100,-30 94,-36 88,-36"/>
<text text-anchor="middle" x="73" y="-15.5" font-family="sans" font-size="10.00" fill="#000000">all</text>
</g>
<!-- 1 -->
<g id="node2" class="node">
<title>1</title>
<path fill="none" stroke="#56d8a9" stroke-width="2" d="M186.5,-108C186.5,-108 61.5,-108 61.5,-108 55.5,-108 49.5,-102 49.5,-96 49.5,-96 49.5,-84 49.5,-84 49.5,-78 55.5,-72 61.5,-72 61.5,-72 186.5,-72 186.5,-72 192.5,-72 198.5,-78 198.5,-84 198.5,-84 198.5,-96 198.5,-96 198.5,-102 192.5,-108 186.5,-108"/>
<text text-anchor="middle" x="124" y="-87.5" font-family="sans" font-size="10.00" fill="#000000">illumina_basecalls_to_sam</text>
</g>
<!-- 1&#45;&gt;0 -->
<g id="edge1" class="edge">
<title>1&#45;&gt;0</title>
<path fill="none" stroke="#c0c0c0" stroke-width="2" d="M111.1305,-71.8314C105.3165,-63.6232 98.3304,-53.7606 91.9354,-44.7323"/>
<polygon fill="#c0c0c0" stroke="#c0c0c0" stroke-width="2" points="94.679,-42.5505 86.0427,-36.4133 88.9669,-46.5966 94.679,-42.5505"/>
</g>
<!-- 2 -->
<g id="node3" class="node">
<title>2</title>
<path fill="none" stroke="#afd856" stroke-width="2" d="M134,-180C134,-180 12,-180 12,-180 6,-180 0,-174 0,-168 0,-168 0,-156 0,-156 0,-150 6,-144 12,-144 12,-144 134,-144 134,-144 140,-144 146,-150 146,-156 146,-156 146,-168 146,-168 146,-174 140,-180 134,-180"/>
<text text-anchor="middle" x="73" y="-159.5" font-family="sans" font-size="10.00" fill="#000000">extract_illumina_barcodes</text>
</g>
<!-- 2&#45;&gt;0 -->
<g id="edge2" class="edge">
<title>2&#45;&gt;0</title>
<path fill="none" stroke="#c0c0c0" stroke-width="2" d="M58.7641,-143.6423C51.9461,-133.6872 44.5138,-120.8222 41,-108 36.7712,-92.5689 36.7712,-87.4311 41,-72 43.5805,-62.5837 48.2742,-53.1443 53.2859,-44.8513"/>
<polygon fill="#c0c0c0" stroke="#c0c0c0" stroke-width="2" points="56.2851,-46.6585 58.7641,-36.3577 50.4026,-42.8644 56.2851,-46.6585"/>
</g>
<!-- 2&#45;&gt;1 -->
<g id="edge3" class="edge">
<title>2&#45;&gt;1</title>
<path fill="none" stroke="#c0c0c0" stroke-width="2" d="M85.8695,-143.8314C91.6835,-135.6232 98.6696,-125.7606 105.0646,-116.7323"/>
<polygon fill="#c0c0c0" stroke="#c0c0c0" stroke-width="2" points="108.0331,-118.5966 110.9573,-108.4133 102.321,-114.5505 108.0331,-118.5966"/>
</g>
</g>
</svg>
