<?xml version="1.0" encoding="UTF-8" standalone="no"?>
<!DOCTYPE svg PUBLIC "-//W3C//DTD SVG 1.1//EN"
 "http://www.w3.org/Graphics/SVG/1.1/DTD/svg11.dtd">
<!-- Generated by graphviz version 2.40.1 (20161225.0304)
 -->
<!-- Title: snakemake_dag Pages: 1 -->
<svg width="1267pt" height="260pt"
 viewBox="0.00 0.00 1266.51 260.00" xmlns="http://www.w3.org/2000/svg" xmlns:xlink="http://www.w3.org/1999/xlink">
<g id="graph0" class="graph" transform="scale(1 1) rotate(0) translate(4 256)">
<title>snakemake_dag</title>
<polygon fill="#ffffff" stroke="transparent" points="-4,4 -4,-256 1262.5097,-256 1262.5097,4 -4,4"/>
<!-- 0 -->
<g id="node1" class="node">
<title>0</title>
<path fill="none" stroke="#d6d856" stroke-width="2" d="M529.0097,-36C529.0097,-36 499.0097,-36 499.0097,-36 493.0097,-36 487.0097,-30 487.0097,-24 487.0097,-24 487.0097,-12 487.0097,-12 487.0097,-6 493.0097,0 499.0097,0 499.0097,0 529.0097,0 529.0097,0 535.0097,0 541.0097,-6 541.0097,-12 541.0097,-12 541.0097,-24 541.0097,-24 541.0097,-30 535.0097,-36 529.0097,-36"/>
<text text-anchor="middle" x="514.0097" y="-15.5" font-family="sans" font-size="10.00" fill="#000000">all</text>
</g>
<!-- 1 -->
<g id="node2" class="node">
<title>1</title>
<path fill="none" stroke="#d85656" stroke-width="2" d="M242.5097,-108C242.5097,-108 33.5097,-108 33.5097,-108 27.5097,-108 21.5097,-102 21.5097,-96 21.5097,-96 21.5097,-84 21.5097,-84 21.5097,-78 27.5097,-72 33.5097,-72 33.5097,-72 242.5097,-72 242.5097,-72 248.5097,-72 254.5097,-78 254.5097,-84 254.5097,-84 254.5097,-96 254.5097,-96 254.5097,-102 248.5097,-108 242.5097,-108"/>
<text text-anchor="middle" x="138.0097" y="-93" font-family="sans" font-size="10.00" fill="#000000">unmapped_bam_to_mapped_bam_with_umi</text>
<text text-anchor="middle" x="138.0097" y="-82" font-family="sans" font-size="10.00" fill="#000000">samplename: tumor_sample4</text>
</g>
<!-- 1&#45;&gt;0 -->
<g id="edge1" class="edge">
<title>1&#45;&gt;0</title>
<path fill="none" stroke="#c0c0c0" stroke-width="2" d="M232.405,-71.9243C311.6587,-56.7481 420.7089,-35.8661 477.0222,-25.0827"/>
<polygon fill="#c0c0c0" stroke="#c0c0c0" stroke-width="2" points="477.7411,-28.5087 486.9043,-23.1904 476.4245,-21.6336 477.7411,-28.5087"/>
</g>
<!-- 2 -->
<g id="node3" class="node">
<title>2</title>
<path fill="none" stroke="#d85656" stroke-width="2" d="M493.5097,-108C493.5097,-108 284.5097,-108 284.5097,-108 278.5097,-108 272.5097,-102 272.5097,-96 272.5097,-96 272.5097,-84 272.5097,-84 272.5097,-78 278.5097,-72 284.5097,-72 284.5097,-72 493.5097,-72 493.5097,-72 499.5097,-72 505.5097,-78 505.5097,-84 505.5097,-84 505.5097,-96 505.5097,-96 505.5097,-102 499.5097,-108 493.5097,-108"/>
<text text-anchor="middle" x="389.0097" y="-93" font-family="sans" font-size="10.00" fill="#000000">unmapped_bam_to_mapped_bam_with_umi</text>
<text text-anchor="middle" x="389.0097" y="-82" font-family="sans" font-size="10.00" fill="#000000">samplename: tumor_sample2</text>
</g>
<!-- 2&#45;&gt;0 -->
<g id="edge2" class="edge">
<title>2&#45;&gt;0</title>
<path fill="none" stroke="#c0c0c0" stroke-width="2" d="M420.5525,-71.8314C437.9205,-61.8273 459.5556,-49.3655 477.6343,-38.9522"/>
<polygon fill="#c0c0c0" stroke="#c0c0c0" stroke-width="2" points="479.8043,-41.7414 486.7227,-33.7173 476.3104,-35.6757 479.8043,-41.7414"/>
</g>
<!-- 3 -->
<g id="node4" class="node">
<title>3</title>
<path fill="none" stroke="#d85656" stroke-width="2" d="M744.5097,-108C744.5097,-108 535.5097,-108 535.5097,-108 529.5097,-108 523.5097,-102 523.5097,-96 523.5097,-96 523.5097,-84 523.5097,-84 523.5097,-78 529.5097,-72 535.5097,-72 535.5097,-72 744.5097,-72 744.5097,-72 750.5097,-72 756.5097,-78 756.5097,-84 756.5097,-84 756.5097,-96 756.5097,-96 756.5097,-102 750.5097,-108 744.5097,-108"/>
<text text-anchor="middle" x="640.0097" y="-93" font-family="sans" font-size="10.00" fill="#000000">unmapped_bam_to_mapped_bam_with_umi</text>
<text text-anchor="middle" x="640.0097" y="-82" font-family="sans" font-size="10.00" fill="#000000">samplename: tumor_sample3</text>
</g>
<!-- 3&#45;&gt;0 -->
<g id="edge3" class="edge">
<title>3&#45;&gt;0</title>
<path fill="none" stroke="#c0c0c0" stroke-width="2" d="M608.2146,-71.8314C590.4216,-61.664 568.1859,-48.9578 549.7861,-38.4437"/>
<polygon fill="#c0c0c0" stroke="#c0c0c0" stroke-width="2" points="551.5168,-35.4016 541.0979,-33.479 548.0438,-41.4793 551.5168,-35.4016"/>
</g>
<!-- 4 -->
<g id="node5" class="node">
<title>4</title>
<path fill="none" stroke="#56d8d8" stroke-width="2" d="M252.0097,-252C252.0097,-252 130.0097,-252 130.0097,-252 124.0097,-252 118.0097,-246 118.0097,-240 118.0097,-240 118.0097,-228 118.0097,-228 118.0097,-222 124.0097,-216 130.0097,-216 130.0097,-216 252.0097,-216 252.0097,-216 258.0097,-216 264.0097,-222 264.0097,-228 264.0097,-228 264.0097,-240 264.0097,-240 264.0097,-246 258.0097,-252 252.0097,-252"/>
<text text-anchor="middle" x="191.0097" y="-231.5" font-family="sans" font-size="10.00" fill="#000000">extract_illumina_barcodes</text>
</g>
<!-- 4&#45;&gt;0 -->
<g id="edge4" class="edge">
<title>4&#45;&gt;0</title>
<path fill="none" stroke="#c0c0c0" stroke-width="2" d="M143.6601,-215.99C75.139,-187.3888 -38.151,-128.9714 13.0097,-72 43.9409,-37.5557 366.2402,-23.1533 476.9293,-19.1983"/>
<polygon fill="#c0c0c0" stroke="#c0c0c0" stroke-width="2" points="477.092,-22.6949 486.9637,-18.8479 476.8476,-15.6991 477.092,-22.6949"/>
</g>
<!-- 7 -->
<g id="node8" class="node">
<title>7</title>
<path fill="none" stroke="#59d856" stroke-width="2" d="M576.5097,-180C576.5097,-180 451.5097,-180 451.5097,-180 445.5097,-180 439.5097,-174 439.5097,-168 439.5097,-168 439.5097,-156 439.5097,-156 439.5097,-150 445.5097,-144 451.5097,-144 451.5097,-144 576.5097,-144 576.5097,-144 582.5097,-144 588.5097,-150 588.5097,-156 588.5097,-156 588.5097,-168 588.5097,-168 588.5097,-174 582.5097,-180 576.5097,-180"/>
<text text-anchor="middle" x="514.0097" y="-159.5" font-family="sans" font-size="10.00" fill="#000000">illumina_basecalls_to_sam</text>
</g>
<!-- 4&#45;&gt;7 -->
<g id="edge12" class="edge">
<title>4&#45;&gt;7</title>
<path fill="none" stroke="#c0c0c0" stroke-width="2" d="M264.3034,-217.6621C313.337,-206.732 378.019,-192.3137 429.2654,-180.8904"/>
<polygon fill="#c0c0c0" stroke="#c0c0c0" stroke-width="2" points="430.328,-184.2395 439.3269,-178.6476 428.8049,-177.4072 430.328,-184.2395"/>
</g>
<!-- 5 -->
<g id="node6" class="node">
<title>5</title>
<path fill="none" stroke="#d85656" stroke-width="2" d="M995.5097,-108C995.5097,-108 786.5097,-108 786.5097,-108 780.5097,-108 774.5097,-102 774.5097,-96 774.5097,-96 774.5097,-84 774.5097,-84 774.5097,-78 780.5097,-72 786.5097,-72 786.5097,-72 995.5097,-72 995.5097,-72 1001.5097,-72 1007.5097,-78 1007.5097,-84 1007.5097,-84 1007.5097,-96 1007.5097,-96 1007.5097,-102 1001.5097,-108 995.5097,-108"/>
<text text-anchor="middle" x="891.0097" y="-93" font-family="sans" font-size="10.00" fill="#000000">unmapped_bam_to_mapped_bam_with_umi</text>
<text text-anchor="middle" x="891.0097" y="-82" font-family="sans" font-size="10.00" fill="#000000">samplename: tumor_sample1</text>
</g>
<!-- 5&#45;&gt;0 -->
<g id="edge5" class="edge">
<title>5&#45;&gt;0</title>
<path fill="none" stroke="#c0c0c0" stroke-width="2" d="M796.3633,-71.9243C716.8988,-56.7481 607.5586,-35.8661 551.0955,-25.0827"/>
<polygon fill="#c0c0c0" stroke="#c0c0c0" stroke-width="2" points="551.6662,-21.6285 541.1871,-23.1904 550.353,-28.5042 551.6662,-21.6285"/>
</g>
<!-- 6 -->
<g id="node7" class="node">
<title>6</title>
<path fill="none" stroke="#d85656" stroke-width="2" d="M1246.5097,-108C1246.5097,-108 1037.5097,-108 1037.5097,-108 1031.5097,-108 1025.5097,-102 1025.5097,-96 1025.5097,-96 1025.5097,-84 1025.5097,-84 1025.5097,-78 1031.5097,-72 1037.5097,-72 1037.5097,-72 1246.5097,-72 1246.5097,-72 1252.5097,-72 1258.5097,-78 1258.5097,-84 1258.5097,-84 1258.5097,-96 1258.5097,-96 1258.5097,-102 1252.5097,-108 1246.5097,-108"/>
<text text-anchor="middle" x="1142.0097" y="-93" font-family="sans" font-size="10.00" fill="#000000">unmapped_bam_to_mapped_bam_with_umi</text>
<text text-anchor="middle" x="1142.0097" y="-82" font-family="sans" font-size="10.00" fill="#000000">samplename: tumor_sample5</text>
</g>
<!-- 6&#45;&gt;0 -->
<g id="edge6" class="edge">
<title>6&#45;&gt;0</title>
<path fill="none" stroke="#c0c0c0" stroke-width="2" d="M1025.2553,-73.0518C1022.4807,-72.6928 1019.729,-72.3416 1017.0097,-72 842.9775,-50.1352 634.3617,-29.5214 551.0318,-21.5131"/>
<polygon fill="#c0c0c0" stroke="#c0c0c0" stroke-width="2" points="551.3282,-18.0255 541.0399,-20.5556 550.6604,-24.9936 551.3282,-18.0255"/>
</g>
<!-- 7&#45;&gt;1 -->
<g id="edge7" class="edge">
<title>7&#45;&gt;1</title>
<path fill="none" stroke="#c0c0c0" stroke-width="2" d="M439.2746,-147.689C382.8616,-136.8865 304.7557,-121.9301 242.2089,-109.953"/>
<polygon fill="#c0c0c0" stroke="#c0c0c0" stroke-width="2" points="242.7897,-106.5007 232.3099,-108.0575 241.4731,-113.3758 242.7897,-106.5007"/>
</g>
<!-- 7&#45;&gt;2 -->
<g id="edge8" class="edge">
<title>7&#45;&gt;2</title>
<path fill="none" stroke="#c0c0c0" stroke-width="2" d="M482.4669,-143.8314C466.3306,-134.5368 446.5111,-123.1208 429.2824,-113.1971"/>
<polygon fill="#c0c0c0" stroke="#c0c0c0" stroke-width="2" points="430.9546,-110.1212 420.5424,-108.1628 427.4608,-116.187 430.9546,-110.1212"/>
</g>
<!-- 7&#45;&gt;3 -->
<g id="edge9" class="edge">
<title>7&#45;&gt;3</title>
<path fill="none" stroke="#c0c0c0" stroke-width="2" d="M545.8048,-143.8314C562.0702,-134.5368 582.0483,-123.1208 599.4147,-113.1971"/>
<polygon fill="#c0c0c0" stroke="#c0c0c0" stroke-width="2" points="601.2788,-116.1631 608.2247,-108.1628 597.8058,-110.0854 601.2788,-116.1631"/>
</g>
<!-- 7&#45;&gt;5 -->
<g id="edge10" class="edge">
<title>7&#45;&gt;5</title>
<path fill="none" stroke="#c0c0c0" stroke-width="2" d="M588.9435,-147.689C645.5066,-136.8865 723.8202,-121.9301 786.5333,-109.953"/>
<polygon fill="#c0c0c0" stroke="#c0c0c0" stroke-width="2" points="787.2928,-113.3713 796.4587,-108.0575 785.9796,-106.4956 787.2928,-113.3713"/>
</g>
<!-- 7&#45;&gt;6 -->
<g id="edge11" class="edge">
<title>7&#45;&gt;6</title>
<path fill="none" stroke="#c0c0c0" stroke-width="2" d="M588.6769,-154.8332C684.8755,-145.4096 857.5437,-127.8524 1014.9127,-108.2427"/>
<polygon fill="#c0c0c0" stroke="#c0c0c0" stroke-width="2" points="1015.7674,-111.6631 1025.2553,-106.9482 1014.898,-104.7173 1015.7674,-111.6631"/>
</g>
</g>
</svg>
