<?xml version="1.0" encoding="UTF-8" standalone="no"?>
<!DOCTYPE svg PUBLIC "-//W3C//DTD SVG 1.1//EN"
 "http://www.w3.org/Graphics/SVG/1.1/DTD/svg11.dtd">
<!-- Generated by graphviz version 2.40.1 (20161225.0304)
 -->
<!-- Title: snakemake_dag Pages: 1 -->
<svg width="1274pt" height="404pt"
 viewBox="0.00 0.00 1273.50 404.00" xmlns="http://www.w3.org/2000/svg" xmlns:xlink="http://www.w3.org/1999/xlink">
<g id="graph0" class="graph" transform="scale(1 1) rotate(0) translate(4 400)">
<title>snakemake_dag</title>
<polygon fill="#ffffff" stroke="transparent" points="-4,4 -4,-400 1269.5,-400 1269.5,4 -4,4"/>
<!-- 0 -->
<g id="node1" class="node">
<title>0</title>
<path fill="none" stroke="#afd856" stroke-width="2" d="M553,-36C553,-36 523,-36 523,-36 517,-36 511,-30 511,-24 511,-24 511,-12 511,-12 511,-6 517,0 523,0 523,0 553,0 553,0 559,0 565,-6 565,-12 565,-12 565,-24 565,-24 565,-30 559,-36 553,-36"/>
<text text-anchor="middle" x="538" y="-15.5" font-family="sans" font-size="10.00" fill="#000000">all</text>
</g>
<!-- 1 -->
<g id="node2" class="node">
<title>1</title>
<path fill="none" stroke="#d8ac56" stroke-width="2" d="M259,-396C259,-396 137,-396 137,-396 131,-396 125,-390 125,-384 125,-384 125,-372 125,-372 125,-366 131,-360 137,-360 137,-360 259,-360 259,-360 265,-360 271,-366 271,-372 271,-372 271,-384 271,-384 271,-390 265,-396 259,-396"/>
<text text-anchor="middle" x="198" y="-375.5" font-family="sans" font-size="10.00" fill="#000000">extract_illumina_barcodes</text>
</g>
<!-- 1&#45;&gt;0 -->
<g id="edge1" class="edge">
<title>1&#45;&gt;0</title>
<path fill="none" stroke="#c0c0c0" stroke-width="2" d="M132.0689,-359.9898C74.4706,-339.7736 0,-300.7322 0,-234 0,-234 0,-234 0,-162 0,-97.0974 55.1079,-97.0056 115,-72 184.577,-42.9509 411.2178,-25.9426 500.9422,-20.2042"/>
<polygon fill="#c0c0c0" stroke="#c0c0c0" stroke-width="2" points="501.1771,-23.6965 510.9376,-19.5756 500.7376,-16.7103 501.1771,-23.6965"/>
</g>
<!-- 17 -->
<g id="node18" class="node">
<title>17</title>
<path fill="none" stroke="#56d8a9" stroke-width="2" d="M603,-324C603,-324 439,-324 439,-324 433,-324 427,-318 427,-312 427,-312 427,-300 427,-300 427,-294 433,-288 439,-288 439,-288 603,-288 603,-288 609,-288 615,-294 615,-300 615,-300 615,-312 615,-312 615,-318 609,-324 603,-324"/>
<text text-anchor="middle" x="521" y="-303.5" font-family="sans" font-size="10.00" fill="#000000">illumina_basecalls_to_sam_demux</text>
</g>
<!-- 1&#45;&gt;17 -->
<g id="edge22" class="edge">
<title>1&#45;&gt;17</title>
<path fill="none" stroke="#c0c0c0" stroke-width="2" d="M271.2937,-361.6621C318.4078,-351.1599 379.9692,-337.4372 430.1774,-326.2453"/>
<polygon fill="#c0c0c0" stroke="#c0c0c0" stroke-width="2" points="431.0611,-329.6343 440.0601,-324.0423 429.5381,-322.802 431.0611,-329.6343"/>
</g>
<!-- 2 -->
<g id="node3" class="node">
<title>2</title>
<path fill="none" stroke="#56a9d8" stroke-width="2" d="M276,-108C276,-108 136,-108 136,-108 130,-108 124,-102 124,-96 124,-96 124,-84 124,-84 124,-78 130,-72 136,-72 136,-72 276,-72 276,-72 282,-72 288,-78 288,-84 288,-84 288,-96 288,-96 288,-102 282,-108 276,-108"/>
<text text-anchor="middle" x="206" y="-87.5" font-family="sans" font-size="10.00" fill="#000000">CallMolecularConsensusReads</text>
</g>
<!-- 2&#45;&gt;0 -->
<g id="edge2" class="edge">
<title>2&#45;&gt;0</title>
<path fill="none" stroke="#c0c0c0" stroke-width="2" d="M288.0674,-72.2022C356.1527,-57.4368 449.8016,-37.1274 500.9544,-26.034"/>
<polygon fill="#c0c0c0" stroke="#c0c0c0" stroke-width="2" points="501.8683,-29.4172 510.8993,-23.8773 500.3846,-22.5763 501.8683,-29.4172"/>
</g>
<!-- 3 -->
<g id="node4" class="node">
<title>3</title>
<path fill="none" stroke="#56a9d8" stroke-width="2" d="M509,-108C509,-108 369,-108 369,-108 363,-108 357,-102 357,-96 357,-96 357,-84 357,-84 357,-78 363,-72 369,-72 369,-72 509,-72 509,-72 515,-72 521,-78 521,-84 521,-84 521,-96 521,-96 521,-102 515,-108 509,-108"/>
<text text-anchor="middle" x="439" y="-87.5" font-family="sans" font-size="10.00" fill="#000000">CallMolecularConsensusReads</text>
</g>
<!-- 3&#45;&gt;0 -->
<g id="edge3" class="edge">
<title>3&#45;&gt;0</title>
<path fill="none" stroke="#c0c0c0" stroke-width="2" d="M463.9819,-71.8314C476.2928,-62.8779 491.3107,-51.9558 504.5937,-42.2955"/>
<polygon fill="#c0c0c0" stroke="#c0c0c0" stroke-width="2" points="506.9973,-44.8752 513.0261,-36.1628 502.8801,-39.214 506.9973,-44.8752"/>
</g>
<!-- 4 -->
<g id="node5" class="node">
<title>4</title>
<path fill="none" stroke="#56a9d8" stroke-width="2" d="M708,-108C708,-108 568,-108 568,-108 562,-108 556,-102 556,-96 556,-96 556,-84 556,-84 556,-78 562,-72 568,-72 568,-72 708,-72 708,-72 714,-72 720,-78 720,-84 720,-84 720,-96 720,-96 720,-102 714,-108 708,-108"/>
<text text-anchor="middle" x="638" y="-87.5" font-family="sans" font-size="10.00" fill="#000000">CallMolecularConsensusReads</text>
</g>
<!-- 4&#45;&gt;0 -->
<g id="edge4" class="edge">
<title>4&#45;&gt;0</title>
<path fill="none" stroke="#c0c0c0" stroke-width="2" d="M612.7658,-71.8314C600.212,-62.7927 584.8717,-51.7476 571.3609,-42.0198"/>
<polygon fill="#c0c0c0" stroke="#c0c0c0" stroke-width="2" points="573.3866,-39.1655 563.2261,-36.1628 569.2964,-44.8463 573.3866,-39.1655"/>
</g>
<!-- 5 -->
<g id="node6" class="node">
<title>5</title>
<path fill="none" stroke="#56a9d8" stroke-width="2" d="M933,-108C933,-108 793,-108 793,-108 787,-108 781,-102 781,-96 781,-96 781,-84 781,-84 781,-78 787,-72 793,-72 793,-72 933,-72 933,-72 939,-72 945,-78 945,-84 945,-84 945,-96 945,-96 945,-102 939,-108 933,-108"/>
<text text-anchor="middle" x="863" y="-87.5" font-family="sans" font-size="10.00" fill="#000000">CallMolecularConsensusReads</text>
</g>
<!-- 5&#45;&gt;0 -->
<g id="edge5" class="edge">
<title>5&#45;&gt;0</title>
<path fill="none" stroke="#c0c0c0" stroke-width="2" d="M781.4083,-71.9243C715.2284,-57.2629 625.0113,-37.2763 575.0789,-26.2144"/>
<polygon fill="#c0c0c0" stroke="#c0c0c0" stroke-width="2" points="575.5789,-22.7404 565.0585,-23.9945 574.0647,-29.5747 575.5789,-22.7404"/>
</g>
<!-- 6 -->
<g id="node7" class="node">
<title>6</title>
<path fill="none" stroke="#56a9d8" stroke-width="2" d="M1171,-108C1171,-108 1031,-108 1031,-108 1025,-108 1019,-102 1019,-96 1019,-96 1019,-84 1019,-84 1019,-78 1025,-72 1031,-72 1031,-72 1171,-72 1171,-72 1177,-72 1183,-78 1183,-84 1183,-84 1183,-96 1183,-96 1183,-102 1177,-108 1171,-108"/>
<text text-anchor="middle" x="1101" y="-87.5" font-family="sans" font-size="10.00" fill="#000000">CallMolecularConsensusReads</text>
</g>
<!-- 6&#45;&gt;0 -->
<g id="edge6" class="edge">
<title>6&#45;&gt;0</title>
<path fill="none" stroke="#c0c0c0" stroke-width="2" d="M1018.8337,-79.4921C894.7973,-63.6295 664.7159,-34.2052 575.0907,-22.7434"/>
<polygon fill="#c0c0c0" stroke="#c0c0c0" stroke-width="2" points="575.484,-19.2653 565.1207,-21.4684 574.5959,-26.2087 575.484,-19.2653"/>
</g>
<!-- 7 -->
<g id="node8" class="node">
<title>7</title>
<path fill="none" stroke="#59d856" stroke-width="2" d="M213,-180C213,-180 129,-180 129,-180 123,-180 117,-174 117,-168 117,-168 117,-156 117,-156 117,-150 123,-144 129,-144 129,-144 213,-144 213,-144 219,-144 225,-150 225,-156 225,-156 225,-168 225,-168 225,-174 219,-180 213,-180"/>
<text text-anchor="middle" x="171" y="-159.5" font-family="sans" font-size="10.00" fill="#000000">GroupReadsByUmi</text>
</g>
<!-- 7&#45;&gt;2 -->
<g id="edge7" class="edge">
<title>7&#45;&gt;2</title>
<path fill="none" stroke="#c0c0c0" stroke-width="2" d="M179.832,-143.8314C183.6986,-135.8771 188.3206,-126.369 192.5968,-117.5723"/>
<polygon fill="#c0c0c0" stroke="#c0c0c0" stroke-width="2" points="195.8249,-118.9371 197.0491,-108.4133 189.5293,-115.8768 195.8249,-118.9371"/>
</g>
<!-- 8 -->
<g id="node9" class="node">
<title>8</title>
<path fill="none" stroke="#59d856" stroke-width="2" d="M447,-180C447,-180 363,-180 363,-180 357,-180 351,-174 351,-168 351,-168 351,-156 351,-156 351,-150 357,-144 363,-144 363,-144 447,-144 447,-144 453,-144 459,-150 459,-156 459,-156 459,-168 459,-168 459,-174 453,-180 447,-180"/>
<text text-anchor="middle" x="405" y="-159.5" font-family="sans" font-size="10.00" fill="#000000">GroupReadsByUmi</text>
</g>
<!-- 8&#45;&gt;3 -->
<g id="edge8" class="edge">
<title>8&#45;&gt;3</title>
<path fill="none" stroke="#c0c0c0" stroke-width="2" d="M413.5796,-143.8314C417.3358,-135.8771 421.8257,-126.369 425.9798,-117.5723"/>
<polygon fill="#c0c0c0" stroke="#c0c0c0" stroke-width="2" points="429.1996,-118.9503 430.3048,-108.4133 422.8699,-115.9612 429.1996,-118.9503"/>
</g>
<!-- 9 -->
<g id="node10" class="node">
<title>9</title>
<path fill="none" stroke="#59d856" stroke-width="2" d="M684,-180C684,-180 600,-180 600,-180 594,-180 588,-174 588,-168 588,-168 588,-156 588,-156 588,-150 594,-144 600,-144 600,-144 684,-144 684,-144 690,-144 696,-150 696,-156 696,-156 696,-168 696,-168 696,-174 690,-180 684,-180"/>
<text text-anchor="middle" x="642" y="-159.5" font-family="sans" font-size="10.00" fill="#000000">GroupReadsByUmi</text>
</g>
<!-- 9&#45;&gt;4 -->
<g id="edge9" class="edge">
<title>9&#45;&gt;4</title>
<path fill="none" stroke="#c0c0c0" stroke-width="2" d="M640.9906,-143.8314C640.5628,-136.131 640.0541,-126.9743 639.5787,-118.4166"/>
<polygon fill="#c0c0c0" stroke="#c0c0c0" stroke-width="2" points="643.0724,-118.2037 639.023,-108.4133 636.0831,-118.592 643.0724,-118.2037"/>
</g>
<!-- 10 -->
<g id="node11" class="node">
<title>10</title>
<path fill="none" stroke="#59d856" stroke-width="2" d="M922,-180C922,-180 838,-180 838,-180 832,-180 826,-174 826,-168 826,-168 826,-156 826,-156 826,-150 832,-144 838,-144 838,-144 922,-144 922,-144 928,-144 934,-150 934,-156 934,-156 934,-168 934,-168 934,-174 928,-180 922,-180"/>
<text text-anchor="middle" x="880" y="-159.5" font-family="sans" font-size="10.00" fill="#000000">GroupReadsByUmi</text>
</g>
<!-- 10&#45;&gt;5 -->
<g id="edge10" class="edge">
<title>10&#45;&gt;5</title>
<path fill="none" stroke="#c0c0c0" stroke-width="2" d="M875.7102,-143.8314C873.892,-136.131 871.7301,-126.9743 869.7095,-118.4166"/>
<polygon fill="#c0c0c0" stroke="#c0c0c0" stroke-width="2" points="873.0519,-117.3414 867.3476,-108.4133 866.2392,-118.95 873.0519,-117.3414"/>
</g>
<!-- 11 -->
<g id="node12" class="node">
<title>11</title>
<path fill="none" stroke="#59d856" stroke-width="2" d="M1167,-180C1167,-180 1083,-180 1083,-180 1077,-180 1071,-174 1071,-168 1071,-168 1071,-156 1071,-156 1071,-150 1077,-144 1083,-144 1083,-144 1167,-144 1167,-144 1173,-144 1179,-150 1179,-156 1179,-156 1179,-168 1179,-168 1179,-174 1173,-180 1167,-180"/>
<text text-anchor="middle" x="1125" y="-159.5" font-family="sans" font-size="10.00" fill="#000000">GroupReadsByUmi</text>
</g>
<!-- 11&#45;&gt;6 -->
<g id="edge11" class="edge">
<title>11&#45;&gt;6</title>
<path fill="none" stroke="#c0c0c0" stroke-width="2" d="M1118.9438,-143.8314C1116.3488,-136.0463 1113.2576,-126.7729 1110.3782,-118.1347"/>
<polygon fill="#c0c0c0" stroke="#c0c0c0" stroke-width="2" points="1113.6205,-116.7933 1107.1378,-108.4133 1106.9797,-119.0069 1113.6205,-116.7933"/>
</g>
<!-- 12 -->
<g id="node13" class="node">
<title>12</title>
<path fill="none" stroke="#d85656" stroke-width="2" d="M249.5,-252C249.5,-252 40.5,-252 40.5,-252 34.5,-252 28.5,-246 28.5,-240 28.5,-240 28.5,-228 28.5,-228 28.5,-222 34.5,-216 40.5,-216 40.5,-216 249.5,-216 249.5,-216 255.5,-216 261.5,-222 261.5,-228 261.5,-228 261.5,-240 261.5,-240 261.5,-246 255.5,-252 249.5,-252"/>
<text text-anchor="middle" x="145" y="-237" font-family="sans" font-size="10.00" fill="#000000">unmapped_bam_to_mapped_bam_with_umi</text>
<text text-anchor="middle" x="145" y="-226" font-family="sans" font-size="10.00" fill="#000000">samplename: tumor_sample2</text>
</g>
<!-- 12&#45;&gt;7 -->
<g id="edge12" class="edge">
<title>12&#45;&gt;7</title>
<path fill="none" stroke="#c0c0c0" stroke-width="2" d="M151.5609,-215.8314C154.4027,-207.9617 157.7937,-198.5712 160.9419,-189.8533"/>
<polygon fill="#c0c0c0" stroke="#c0c0c0" stroke-width="2" points="164.2462,-191.0076 164.3508,-180.4133 157.6623,-188.63 164.2462,-191.0076"/>
</g>
<!-- 13 -->
<g id="node14" class="node">
<title>13</title>
<path fill="none" stroke="#d85656" stroke-width="2" d="M500.5,-252C500.5,-252 291.5,-252 291.5,-252 285.5,-252 279.5,-246 279.5,-240 279.5,-240 279.5,-228 279.5,-228 279.5,-222 285.5,-216 291.5,-216 291.5,-216 500.5,-216 500.5,-216 506.5,-216 512.5,-222 512.5,-228 512.5,-228 512.5,-240 512.5,-240 512.5,-246 506.5,-252 500.5,-252"/>
<text text-anchor="middle" x="396" y="-237" font-family="sans" font-size="10.00" fill="#000000">unmapped_bam_to_mapped_bam_with_umi</text>
<text text-anchor="middle" x="396" y="-226" font-family="sans" font-size="10.00" fill="#000000">samplename: tumor_sample5</text>
</g>
<!-- 13&#45;&gt;8 -->
<g id="edge13" class="edge">
<title>13&#45;&gt;8</title>
<path fill="none" stroke="#c0c0c0" stroke-width="2" d="M398.2711,-215.8314C399.2336,-208.131 400.3782,-198.9743 401.4479,-190.4166"/>
<polygon fill="#c0c0c0" stroke="#c0c0c0" stroke-width="2" points="404.9309,-190.7702 402.6983,-180.4133 397.9849,-189.9019 404.9309,-190.7702"/>
</g>
<!-- 14 -->
<g id="node15" class="node">
<title>14</title>
<path fill="none" stroke="#d85656" stroke-width="2" d="M751.5,-252C751.5,-252 542.5,-252 542.5,-252 536.5,-252 530.5,-246 530.5,-240 530.5,-240 530.5,-228 530.5,-228 530.5,-222 536.5,-216 542.5,-216 542.5,-216 751.5,-216 751.5,-216 757.5,-216 763.5,-222 763.5,-228 763.5,-228 763.5,-240 763.5,-240 763.5,-246 757.5,-252 751.5,-252"/>
<text text-anchor="middle" x="647" y="-237" font-family="sans" font-size="10.00" fill="#000000">unmapped_bam_to_mapped_bam_with_umi</text>
<text text-anchor="middle" x="647" y="-226" font-family="sans" font-size="10.00" fill="#000000">samplename: tumor_sample1</text>
</g>
<!-- 14&#45;&gt;9 -->
<g id="edge14" class="edge">
<title>14&#45;&gt;9</title>
<path fill="none" stroke="#c0c0c0" stroke-width="2" d="M645.7383,-215.8314C645.2035,-208.131 644.5677,-198.9743 643.9734,-190.4166"/>
<polygon fill="#c0c0c0" stroke="#c0c0c0" stroke-width="2" points="647.4632,-190.1467 643.2787,-180.4133 640.48,-190.6317 647.4632,-190.1467"/>
</g>
<!-- 15 -->
<g id="node16" class="node">
<title>15</title>
<path fill="none" stroke="#d85656" stroke-width="2" d="M1002.5,-252C1002.5,-252 793.5,-252 793.5,-252 787.5,-252 781.5,-246 781.5,-240 781.5,-240 781.5,-228 781.5,-228 781.5,-222 787.5,-216 793.5,-216 793.5,-216 1002.5,-216 1002.5,-216 1008.5,-216 1014.5,-222 1014.5,-228 1014.5,-228 1014.5,-240 1014.5,-240 1014.5,-246 1008.5,-252 1002.5,-252"/>
<text text-anchor="middle" x="898" y="-237" font-family="sans" font-size="10.00" fill="#000000">unmapped_bam_to_mapped_bam_with_umi</text>
<text text-anchor="middle" x="898" y="-226" font-family="sans" font-size="10.00" fill="#000000">samplename: tumor_sample4</text>
</g>
<!-- 15&#45;&gt;10 -->
<g id="edge15" class="edge">
<title>15&#45;&gt;10</title>
<path fill="none" stroke="#c0c0c0" stroke-width="2" d="M893.4578,-215.8314C891.5116,-208.0463 889.1932,-198.7729 887.0337,-190.1347"/>
<polygon fill="#c0c0c0" stroke="#c0c0c0" stroke-width="2" points="890.4242,-189.2658 884.6033,-180.4133 883.6332,-190.9636 890.4242,-189.2658"/>
</g>
<!-- 16 -->
<g id="node17" class="node">
<title>16</title>
<path fill="none" stroke="#d85656" stroke-width="2" d="M1253.5,-252C1253.5,-252 1044.5,-252 1044.5,-252 1038.5,-252 1032.5,-246 1032.5,-240 1032.5,-240 1032.5,-228 1032.5,-228 1032.5,-222 1038.5,-216 1044.5,-216 1044.5,-216 1253.5,-216 1253.5,-216 1259.5,-216 1265.5,-222 1265.5,-228 1265.5,-228 1265.5,-240 1265.5,-240 1265.5,-246 1259.5,-252 1253.5,-252"/>
<text text-anchor="middle" x="1149" y="-237" font-family="sans" font-size="10.00" fill="#000000">unmapped_bam_to_mapped_bam_with_umi</text>
<text text-anchor="middle" x="1149" y="-226" font-family="sans" font-size="10.00" fill="#000000">samplename: tumor_sample3</text>
</g>
<!-- 16&#45;&gt;11 -->
<g id="edge16" class="edge">
<title>16&#45;&gt;11</title>
<path fill="none" stroke="#c0c0c0" stroke-width="2" d="M1142.9438,-215.8314C1140.3488,-208.0463 1137.2576,-198.7729 1134.3782,-190.1347"/>
<polygon fill="#c0c0c0" stroke="#c0c0c0" stroke-width="2" points="1137.6205,-188.7933 1131.1378,-180.4133 1130.9797,-191.0069 1137.6205,-188.7933"/>
</g>
<!-- 17&#45;&gt;12 -->
<g id="edge17" class="edge">
<title>17&#45;&gt;12</title>
<path fill="none" stroke="#c0c0c0" stroke-width="2" d="M426.6047,-287.9243C372.5306,-277.5697 304.5856,-264.5589 248.984,-253.9118"/>
<polygon fill="#c0c0c0" stroke="#c0c0c0" stroke-width="2" points="249.5878,-250.4639 239.108,-252.0207 248.2713,-257.339 249.5878,-250.4639"/>
</g>
<!-- 17&#45;&gt;13 -->
<g id="edge18" class="edge">
<title>17&#45;&gt;13</title>
<path fill="none" stroke="#c0c0c0" stroke-width="2" d="M489.4572,-287.8314C473.3209,-278.5368 453.5014,-267.1208 436.2728,-257.1971"/>
<polygon fill="#c0c0c0" stroke="#c0c0c0" stroke-width="2" points="437.945,-254.1212 427.5327,-252.1628 434.4511,-260.187 437.945,-254.1212"/>
</g>
<!-- 17&#45;&gt;14 -->
<g id="edge19" class="edge">
<title>17&#45;&gt;14</title>
<path fill="none" stroke="#c0c0c0" stroke-width="2" d="M552.7951,-287.8314C569.0605,-278.5368 589.0386,-267.1208 606.4051,-257.1971"/>
<polygon fill="#c0c0c0" stroke="#c0c0c0" stroke-width="2" points="608.2691,-260.1631 615.2151,-252.1628 604.7961,-254.0854 608.2691,-260.1631"/>
</g>
<!-- 17&#45;&gt;15 -->
<g id="edge20" class="edge">
<title>17&#45;&gt;15</title>
<path fill="none" stroke="#c0c0c0" stroke-width="2" d="M615.1605,-288.0171C669.4765,-277.6438 737.8727,-264.5813 793.8,-253.9003"/>
<polygon fill="#c0c0c0" stroke="#c0c0c0" stroke-width="2" points="794.5674,-257.3171 803.7333,-252.0032 793.2542,-250.4413 794.5674,-257.3171"/>
</g>
<!-- 17&#45;&gt;16 -->
<g id="edge21" class="edge">
<title>17&#45;&gt;16</title>
<path fill="none" stroke="#c0c0c0" stroke-width="2" d="M615.0219,-296.8705C713.7046,-287.0636 873.6289,-270.5366 1022.103,-252.0889"/>
<polygon fill="#c0c0c0" stroke="#c0c0c0" stroke-width="2" points="1022.8288,-255.5256 1032.3185,-250.8143 1021.9621,-248.5794 1022.8288,-255.5256"/>
</g>
</g>
</svg>
