<?xml version="1.0" encoding="UTF-8" standalone="no"?>
<!DOCTYPE svg PUBLIC "-//W3C//DTD SVG 1.1//EN"
 "http://www.w3.org/Graphics/SVG/1.1/DTD/svg11.dtd">
<!-- Generated by graphviz version 2.40.1 (20161225.0304)
 -->
<!-- Title: snakemake_dag Pages: 1 -->
<svg width="1274pt" height="548pt"
 viewBox="0.00 0.00 1273.50 548.00" xmlns="http://www.w3.org/2000/svg" xmlns:xlink="http://www.w3.org/1999/xlink">
<g id="graph0" class="graph" transform="scale(1 1) rotate(0) translate(4 544)">
<title>snakemake_dag</title>
<polygon fill="#ffffff" stroke="transparent" points="-4,4 -4,-544 1269.5,-544 1269.5,4 -4,4"/>
<!-- 0 -->
<g id="node1" class="node">
<title>0</title>
<path fill="none" stroke="#d85656" stroke-width="2" d="M547,-36C547,-36 517,-36 517,-36 511,-36 505,-30 505,-24 505,-24 505,-12 505,-12 505,-6 511,0 517,0 517,0 547,0 547,0 553,0 559,-6 559,-12 559,-12 559,-24 559,-24 559,-30 553,-36 547,-36"/>
<text text-anchor="middle" x="532" y="-15.5" font-family="sans" font-size="10.00" fill="#000000">all</text>
</g>
<!-- 1 -->
<g id="node2" class="node">
<title>1</title>
<path fill="none" stroke="#56d8d8" stroke-width="2" d="M259,-540C259,-540 137,-540 137,-540 131,-540 125,-534 125,-528 125,-528 125,-516 125,-516 125,-510 131,-504 137,-504 137,-504 259,-504 259,-504 265,-504 271,-510 271,-516 271,-516 271,-528 271,-528 271,-534 265,-540 259,-540"/>
<text text-anchor="middle" x="198" y="-519.5" font-family="sans" font-size="10.00" fill="#000000">extract_illumina_barcodes</text>
</g>
<!-- 1&#45;&gt;0 -->
<g id="edge1" class="edge">
<title>1&#45;&gt;0</title>
<path fill="none" stroke="#c0c0c0" stroke-width="2" d="M132.0689,-503.9898C74.4706,-483.7736 0,-444.7322 0,-378 0,-378 0,-378 0,-162 0,-100.8731 48.1716,-96.8934 104,-72 173.7455,-40.9011 403.961,-25.0825 494.7336,-19.9338"/>
<polygon fill="#c0c0c0" stroke="#c0c0c0" stroke-width="2" points="495.051,-23.4216 504.8413,-19.3721 494.6625,-16.4324 495.051,-23.4216"/>
</g>
<!-- 27 -->
<g id="node28" class="node">
<title>27</title>
<path fill="none" stroke="#59d856" stroke-width="2" d="M603,-468C603,-468 439,-468 439,-468 433,-468 427,-462 427,-456 427,-456 427,-444 427,-444 427,-438 433,-432 439,-432 439,-432 603,-432 603,-432 609,-432 615,-438 615,-444 615,-444 615,-456 615,-456 615,-462 609,-468 603,-468"/>
<text text-anchor="middle" x="521" y="-447.5" font-family="sans" font-size="10.00" fill="#000000">illumina_basecalls_to_sam_demux</text>
</g>
<!-- 1&#45;&gt;27 -->
<g id="edge32" class="edge">
<title>1&#45;&gt;27</title>
<path fill="none" stroke="#c0c0c0" stroke-width="2" d="M271.2937,-505.6621C318.4078,-495.1599 379.9692,-481.4372 430.1774,-470.2453"/>
<polygon fill="#c0c0c0" stroke="#c0c0c0" stroke-width="2" points="431.0611,-473.6343 440.0601,-468.0423 429.5381,-466.802 431.0611,-473.6343"/>
</g>
<!-- 2 -->
<g id="node3" class="node">
<title>2</title>
<path fill="none" stroke="#56d89a" stroke-width="2" d="M280.5,-108C280.5,-108 125.5,-108 125.5,-108 119.5,-108 113.5,-102 113.5,-96 113.5,-96 113.5,-84 113.5,-84 113.5,-78 119.5,-72 125.5,-72 125.5,-72 280.5,-72 280.5,-72 286.5,-72 292.5,-78 292.5,-84 292.5,-84 292.5,-96 292.5,-96 292.5,-102 286.5,-108 280.5,-108"/>
<text text-anchor="middle" x="203" y="-87.5" font-family="sans" font-size="10.00" fill="#000000">GenerateFilteredConsensusReads</text>
</g>
<!-- 2&#45;&gt;0 -->
<g id="edge2" class="edge">
<title>2&#45;&gt;0</title>
<path fill="none" stroke="#c0c0c0" stroke-width="2" d="M285.5959,-71.9243C352.9086,-57.1933 444.786,-37.0864 495.1822,-26.0574"/>
<polygon fill="#c0c0c0" stroke="#c0c0c0" stroke-width="2" points="495.9654,-29.4689 504.9859,-23.9119 494.4688,-22.6307 495.9654,-29.4689"/>
</g>
<!-- 3 -->
<g id="node4" class="node">
<title>3</title>
<path fill="none" stroke="#56d89a" stroke-width="2" d="M504.5,-108C504.5,-108 349.5,-108 349.5,-108 343.5,-108 337.5,-102 337.5,-96 337.5,-96 337.5,-84 337.5,-84 337.5,-78 343.5,-72 349.5,-72 349.5,-72 504.5,-72 504.5,-72 510.5,-72 516.5,-78 516.5,-84 516.5,-84 516.5,-96 516.5,-96 516.5,-102 510.5,-108 504.5,-108"/>
<text text-anchor="middle" x="427" y="-87.5" font-family="sans" font-size="10.00" fill="#000000">GenerateFilteredConsensusReads</text>
</g>
<!-- 3&#45;&gt;0 -->
<g id="edge3" class="edge">
<title>3&#45;&gt;0</title>
<path fill="none" stroke="#c0c0c0" stroke-width="2" d="M453.4959,-71.8314C466.6774,-62.7927 482.7847,-51.7476 496.9711,-42.0198"/>
<polygon fill="#c0c0c0" stroke="#c0c0c0" stroke-width="2" points="499.2446,-44.7047 505.5125,-36.1628 495.2859,-38.9316 499.2446,-44.7047"/>
</g>
<!-- 4 -->
<g id="node5" class="node">
<title>4</title>
<path fill="none" stroke="#56d89a" stroke-width="2" d="M715.5,-108C715.5,-108 560.5,-108 560.5,-108 554.5,-108 548.5,-102 548.5,-96 548.5,-96 548.5,-84 548.5,-84 548.5,-78 554.5,-72 560.5,-72 560.5,-72 715.5,-72 715.5,-72 721.5,-72 727.5,-78 727.5,-84 727.5,-84 727.5,-96 727.5,-96 727.5,-102 721.5,-108 715.5,-108"/>
<text text-anchor="middle" x="638" y="-87.5" font-family="sans" font-size="10.00" fill="#000000">GenerateFilteredConsensusReads</text>
</g>
<!-- 4&#45;&gt;0 -->
<g id="edge4" class="edge">
<title>4&#45;&gt;0</title>
<path fill="none" stroke="#c0c0c0" stroke-width="2" d="M611.2517,-71.8314C597.9447,-62.7927 581.684,-51.7476 567.3625,-42.0198"/>
<polygon fill="#c0c0c0" stroke="#c0c0c0" stroke-width="2" points="568.9785,-38.8864 558.7397,-36.1628 565.0453,-44.677 568.9785,-38.8864"/>
</g>
<!-- 5 -->
<g id="node6" class="node">
<title>5</title>
<path fill="none" stroke="#56d89a" stroke-width="2" d="M939.5,-108C939.5,-108 784.5,-108 784.5,-108 778.5,-108 772.5,-102 772.5,-96 772.5,-96 772.5,-84 772.5,-84 772.5,-78 778.5,-72 784.5,-72 784.5,-72 939.5,-72 939.5,-72 945.5,-72 951.5,-78 951.5,-84 951.5,-84 951.5,-96 951.5,-96 951.5,-102 945.5,-108 939.5,-108"/>
<text text-anchor="middle" x="862" y="-87.5" font-family="sans" font-size="10.00" fill="#000000">GenerateFilteredConsensusReads</text>
</g>
<!-- 5&#45;&gt;0 -->
<g id="edge5" class="edge">
<title>5&#45;&gt;0</title>
<path fill="none" stroke="#c0c0c0" stroke-width="2" d="M779.153,-71.9243C711.6358,-57.1933 619.4791,-37.0864 568.9297,-26.0574"/>
<polygon fill="#c0c0c0" stroke="#c0c0c0" stroke-width="2" points="569.6124,-22.6241 559.0962,-23.9119 568.1202,-29.4632 569.6124,-22.6241"/>
</g>
<!-- 6 -->
<g id="node7" class="node">
<title>6</title>
<path fill="none" stroke="#56d89a" stroke-width="2" d="M1173.5,-108C1173.5,-108 1018.5,-108 1018.5,-108 1012.5,-108 1006.5,-102 1006.5,-96 1006.5,-96 1006.5,-84 1006.5,-84 1006.5,-78 1012.5,-72 1018.5,-72 1018.5,-72 1173.5,-72 1173.5,-72 1179.5,-72 1185.5,-78 1185.5,-84 1185.5,-84 1185.5,-96 1185.5,-96 1185.5,-102 1179.5,-108 1173.5,-108"/>
<text text-anchor="middle" x="1096" y="-87.5" font-family="sans" font-size="10.00" fill="#000000">GenerateFilteredConsensusReads</text>
</g>
<!-- 6&#45;&gt;0 -->
<g id="edge6" class="edge">
<title>6&#45;&gt;0</title>
<path fill="none" stroke="#c0c0c0" stroke-width="2" d="M1006.3948,-78.0618C990.9248,-76.0232 974.999,-73.9388 960,-72 815.5782,-53.3321 643.6377,-31.8704 569.2937,-22.6278"/>
<polygon fill="#c0c0c0" stroke="#c0c0c0" stroke-width="2" points="569.4032,-19.1146 559.0479,-21.3546 568.5399,-26.0612 569.4032,-19.1146"/>
</g>
<!-- 7 -->
<g id="node8" class="node">
<title>7</title>
<path fill="none" stroke="#97d856" stroke-width="2" d="M273.5,-180C273.5,-180 94.5,-180 94.5,-180 88.5,-180 82.5,-174 82.5,-168 82.5,-168 82.5,-156 82.5,-156 82.5,-150 88.5,-144 94.5,-144 94.5,-144 273.5,-144 273.5,-144 279.5,-144 285.5,-150 285.5,-156 285.5,-156 285.5,-168 285.5,-168 285.5,-174 279.5,-180 273.5,-180"/>
<text text-anchor="middle" x="184" y="-159.5" font-family="sans" font-size="10.00" fill="#000000">CreateConsensusMappedBamWithUMI</text>
</g>
<!-- 7&#45;&gt;2 -->
<g id="edge7" class="edge">
<title>7&#45;&gt;2</title>
<path fill="none" stroke="#c0c0c0" stroke-width="2" d="M188.7945,-143.8314C190.8489,-136.0463 193.296,-126.7729 195.5756,-118.1347"/>
<polygon fill="#c0c0c0" stroke="#c0c0c0" stroke-width="2" points="198.9735,-118.9753 198.1409,-108.4133 192.2052,-117.1892 198.9735,-118.9753"/>
</g>
<!-- 8 -->
<g id="node9" class="node">
<title>8</title>
<path fill="none" stroke="#97d856" stroke-width="2" d="M509.5,-180C509.5,-180 330.5,-180 330.5,-180 324.5,-180 318.5,-174 318.5,-168 318.5,-168 318.5,-156 318.5,-156 318.5,-150 324.5,-144 330.5,-144 330.5,-144 509.5,-144 509.5,-144 515.5,-144 521.5,-150 521.5,-156 521.5,-156 521.5,-168 521.5,-168 521.5,-174 515.5,-180 509.5,-180"/>
<text text-anchor="middle" x="420" y="-159.5" font-family="sans" font-size="10.00" fill="#000000">CreateConsensusMappedBamWithUMI</text>
</g>
<!-- 8&#45;&gt;3 -->
<g id="edge8" class="edge">
<title>8&#45;&gt;3</title>
<path fill="none" stroke="#c0c0c0" stroke-width="2" d="M421.7664,-143.8314C422.515,-136.131 423.4053,-126.9743 424.2373,-118.4166"/>
<polygon fill="#c0c0c0" stroke="#c0c0c0" stroke-width="2" points="427.7256,-118.7051 425.2098,-108.4133 420.7585,-118.0276 427.7256,-118.7051"/>
</g>
<!-- 9 -->
<g id="node10" class="node">
<title>9</title>
<path fill="none" stroke="#97d856" stroke-width="2" d="M734.5,-180C734.5,-180 555.5,-180 555.5,-180 549.5,-180 543.5,-174 543.5,-168 543.5,-168 543.5,-156 543.5,-156 543.5,-150 549.5,-144 555.5,-144 555.5,-144 734.5,-144 734.5,-144 740.5,-144 746.5,-150 746.5,-156 746.5,-156 746.5,-168 746.5,-168 746.5,-174 740.5,-180 734.5,-180"/>
<text text-anchor="middle" x="645" y="-159.5" font-family="sans" font-size="10.00" fill="#000000">CreateConsensusMappedBamWithUMI</text>
</g>
<!-- 9&#45;&gt;4 -->
<g id="edge9" class="edge">
<title>9&#45;&gt;4</title>
<path fill="none" stroke="#c0c0c0" stroke-width="2" d="M643.2336,-143.8314C642.485,-136.131 641.5947,-126.9743 640.7627,-118.4166"/>
<polygon fill="#c0c0c0" stroke="#c0c0c0" stroke-width="2" points="644.2415,-118.0276 639.7902,-108.4133 637.2744,-118.7051 644.2415,-118.0276"/>
</g>
<!-- 10 -->
<g id="node11" class="node">
<title>10</title>
<path fill="none" stroke="#97d856" stroke-width="2" d="M972.5,-180C972.5,-180 793.5,-180 793.5,-180 787.5,-180 781.5,-174 781.5,-168 781.5,-168 781.5,-156 781.5,-156 781.5,-150 787.5,-144 793.5,-144 793.5,-144 972.5,-144 972.5,-144 978.5,-144 984.5,-150 984.5,-156 984.5,-156 984.5,-168 984.5,-168 984.5,-174 978.5,-180 972.5,-180"/>
<text text-anchor="middle" x="883" y="-159.5" font-family="sans" font-size="10.00" fill="#000000">CreateConsensusMappedBamWithUMI</text>
</g>
<!-- 10&#45;&gt;5 -->
<g id="edge10" class="edge">
<title>10&#45;&gt;5</title>
<path fill="none" stroke="#c0c0c0" stroke-width="2" d="M877.7008,-143.8314C875.4302,-136.0463 872.7254,-126.7729 870.206,-118.1347"/>
<polygon fill="#c0c0c0" stroke="#c0c0c0" stroke-width="2" points="873.5306,-117.0332 867.3705,-108.4133 866.8106,-118.9933 873.5306,-117.0332"/>
</g>
<!-- 11 -->
<g id="node12" class="node">
<title>11</title>
<path fill="none" stroke="#97d856" stroke-width="2" d="M1216.5,-180C1216.5,-180 1037.5,-180 1037.5,-180 1031.5,-180 1025.5,-174 1025.5,-168 1025.5,-168 1025.5,-156 1025.5,-156 1025.5,-150 1031.5,-144 1037.5,-144 1037.5,-144 1216.5,-144 1216.5,-144 1222.5,-144 1228.5,-150 1228.5,-156 1228.5,-156 1228.5,-168 1228.5,-168 1228.5,-174 1222.5,-180 1216.5,-180"/>
<text text-anchor="middle" x="1127" y="-159.5" font-family="sans" font-size="10.00" fill="#000000">CreateConsensusMappedBamWithUMI</text>
</g>
<!-- 11&#45;&gt;6 -->
<g id="edge11" class="edge">
<title>11&#45;&gt;6</title>
<path fill="none" stroke="#c0c0c0" stroke-width="2" d="M1119.1774,-143.8314C1115.7891,-135.9617 1111.7459,-126.5712 1107.9924,-117.8533"/>
<polygon fill="#c0c0c0" stroke="#c0c0c0" stroke-width="2" points="1111.0973,-116.214 1103.9279,-108.4133 1104.6679,-118.9822 1111.0973,-116.214"/>
</g>
<!-- 12 -->
<g id="node13" class="node">
<title>12</title>
<path fill="none" stroke="#d89556" stroke-width="2" d="M232,-252C232,-252 92,-252 92,-252 86,-252 80,-246 80,-240 80,-240 80,-228 80,-228 80,-222 86,-216 92,-216 92,-216 232,-216 232,-216 238,-216 244,-222 244,-228 244,-228 244,-240 244,-240 244,-246 238,-252 232,-252"/>
<text text-anchor="middle" x="162" y="-231.5" font-family="sans" font-size="10.00" fill="#000000">CallMolecularConsensusReads</text>
</g>
<!-- 12&#45;&gt;7 -->
<g id="edge12" class="edge">
<title>12&#45;&gt;7</title>
<path fill="none" stroke="#c0c0c0" stroke-width="2" d="M167.5515,-215.8314C169.9303,-208.0463 172.7638,-198.7729 175.4033,-190.1347"/>
<polygon fill="#c0c0c0" stroke="#c0c0c0" stroke-width="2" points="178.7987,-190.9996 178.3737,-180.4133 172.1042,-188.954 178.7987,-190.9996"/>
</g>
<!-- 13 -->
<g id="node14" class="node">
<title>13</title>
<path fill="none" stroke="#d89556" stroke-width="2" d="M483,-252C483,-252 343,-252 343,-252 337,-252 331,-246 331,-240 331,-240 331,-228 331,-228 331,-222 337,-216 343,-216 343,-216 483,-216 483,-216 489,-216 495,-222 495,-228 495,-228 495,-240 495,-240 495,-246 489,-252 483,-252"/>
<text text-anchor="middle" x="413" y="-231.5" font-family="sans" font-size="10.00" fill="#000000">CallMolecularConsensusReads</text>
</g>
<!-- 13&#45;&gt;8 -->
<g id="edge13" class="edge">
<title>13&#45;&gt;8</title>
<path fill="none" stroke="#c0c0c0" stroke-width="2" d="M414.7664,-215.8314C415.515,-208.131 416.4053,-198.9743 417.2373,-190.4166"/>
<polygon fill="#c0c0c0" stroke="#c0c0c0" stroke-width="2" points="420.7256,-190.7051 418.2098,-180.4133 413.7585,-190.0276 420.7256,-190.7051"/>
</g>
<!-- 14 -->
<g id="node15" class="node">
<title>14</title>
<path fill="none" stroke="#d89556" stroke-width="2" d="M715,-252C715,-252 575,-252 575,-252 569,-252 563,-246 563,-240 563,-240 563,-228 563,-228 563,-222 569,-216 575,-216 575,-216 715,-216 715,-216 721,-216 727,-222 727,-228 727,-228 727,-240 727,-240 727,-246 721,-252 715,-252"/>
<text text-anchor="middle" x="645" y="-231.5" font-family="sans" font-size="10.00" fill="#000000">CallMolecularConsensusReads</text>
</g>
<!-- 14&#45;&gt;9 -->
<g id="edge14" class="edge">
<title>14&#45;&gt;9</title>
<path fill="none" stroke="#c0c0c0" stroke-width="2" d="M645,-215.8314C645,-208.131 645,-198.9743 645,-190.4166"/>
<polygon fill="#c0c0c0" stroke="#c0c0c0" stroke-width="2" points="648.5001,-190.4132 645,-180.4133 641.5001,-190.4133 648.5001,-190.4132"/>
</g>
<!-- 15 -->
<g id="node16" class="node">
<title>15</title>
<path fill="none" stroke="#d89556" stroke-width="2" d="M957,-252C957,-252 817,-252 817,-252 811,-252 805,-246 805,-240 805,-240 805,-228 805,-228 805,-222 811,-216 817,-216 817,-216 957,-216 957,-216 963,-216 969,-222 969,-228 969,-228 969,-240 969,-240 969,-246 963,-252 957,-252"/>
<text text-anchor="middle" x="887" y="-231.5" font-family="sans" font-size="10.00" fill="#000000">CallMolecularConsensusReads</text>
</g>
<!-- 15&#45;&gt;10 -->
<g id="edge15" class="edge">
<title>15&#45;&gt;10</title>
<path fill="none" stroke="#c0c0c0" stroke-width="2" d="M885.9906,-215.8314C885.5628,-208.131 885.0541,-198.9743 884.5787,-190.4166"/>
<polygon fill="#c0c0c0" stroke="#c0c0c0" stroke-width="2" points="888.0724,-190.2037 884.023,-180.4133 881.0831,-190.592 888.0724,-190.2037"/>
</g>
<!-- 16 -->
<g id="node17" class="node">
<title>16</title>
<path fill="none" stroke="#d89556" stroke-width="2" d="M1202,-252C1202,-252 1062,-252 1062,-252 1056,-252 1050,-246 1050,-240 1050,-240 1050,-228 1050,-228 1050,-222 1056,-216 1062,-216 1062,-216 1202,-216 1202,-216 1208,-216 1214,-222 1214,-228 1214,-228 1214,-240 1214,-240 1214,-246 1208,-252 1202,-252"/>
<text text-anchor="middle" x="1132" y="-231.5" font-family="sans" font-size="10.00" fill="#000000">CallMolecularConsensusReads</text>
</g>
<!-- 16&#45;&gt;11 -->
<g id="edge16" class="edge">
<title>16&#45;&gt;11</title>
<path fill="none" stroke="#c0c0c0" stroke-width="2" d="M1130.7383,-215.8314C1130.2035,-208.131 1129.5677,-198.9743 1128.9734,-190.4166"/>
<polygon fill="#c0c0c0" stroke="#c0c0c0" stroke-width="2" points="1132.4632,-190.1467 1128.2787,-180.4133 1125.48,-190.6317 1132.4632,-190.1467"/>
</g>
<!-- 17 -->
<g id="node18" class="node">
<title>17</title>
<path fill="none" stroke="#d6d856" stroke-width="2" d="M194,-324C194,-324 110,-324 110,-324 104,-324 98,-318 98,-312 98,-312 98,-300 98,-300 98,-294 104,-288 110,-288 110,-288 194,-288 194,-288 200,-288 206,-294 206,-300 206,-300 206,-312 206,-312 206,-318 200,-324 194,-324"/>
<text text-anchor="middle" x="152" y="-303.5" font-family="sans" font-size="10.00" fill="#000000">GroupReadsByUmi</text>
</g>
<!-- 17&#45;&gt;12 -->
<g id="edge17" class="edge">
<title>17&#45;&gt;12</title>
<path fill="none" stroke="#c0c0c0" stroke-width="2" d="M154.5234,-287.8314C155.5929,-280.131 156.8647,-270.9743 158.0532,-262.4166"/>
<polygon fill="#c0c0c0" stroke="#c0c0c0" stroke-width="2" points="161.5336,-262.7997 159.4426,-252.4133 154.6001,-261.8367 161.5336,-262.7997"/>
</g>
<!-- 18 -->
<g id="node19" class="node">
<title>18</title>
<path fill="none" stroke="#d6d856" stroke-width="2" d="M440,-324C440,-324 356,-324 356,-324 350,-324 344,-318 344,-312 344,-312 344,-300 344,-300 344,-294 350,-288 356,-288 356,-288 440,-288 440,-288 446,-288 452,-294 452,-300 452,-300 452,-312 452,-312 452,-318 446,-324 440,-324"/>
<text text-anchor="middle" x="398" y="-303.5" font-family="sans" font-size="10.00" fill="#000000">GroupReadsByUmi</text>
</g>
<!-- 18&#45;&gt;13 -->
<g id="edge18" class="edge">
<title>18&#45;&gt;13</title>
<path fill="none" stroke="#c0c0c0" stroke-width="2" d="M401.7851,-287.8314C403.3894,-280.131 405.297,-270.9743 407.0799,-262.4166"/>
<polygon fill="#c0c0c0" stroke="#c0c0c0" stroke-width="2" points="410.5507,-262.9169 409.1639,-252.4133 403.6979,-261.4892 410.5507,-262.9169"/>
</g>
<!-- 19 -->
<g id="node20" class="node">
<title>19</title>
<path fill="none" stroke="#d6d856" stroke-width="2" d="M688,-324C688,-324 604,-324 604,-324 598,-324 592,-318 592,-312 592,-312 592,-300 592,-300 592,-294 598,-288 604,-288 604,-288 688,-288 688,-288 694,-288 700,-294 700,-300 700,-300 700,-312 700,-312 700,-318 694,-324 688,-324"/>
<text text-anchor="middle" x="646" y="-303.5" font-family="sans" font-size="10.00" fill="#000000">GroupReadsByUmi</text>
</g>
<!-- 19&#45;&gt;14 -->
<g id="edge19" class="edge">
<title>19&#45;&gt;14</title>
<path fill="none" stroke="#c0c0c0" stroke-width="2" d="M645.7477,-287.8314C645.6407,-280.131 645.5135,-270.9743 645.3947,-262.4166"/>
<polygon fill="#c0c0c0" stroke="#c0c0c0" stroke-width="2" points="648.8944,-262.3637 645.2557,-252.4133 641.8951,-262.4609 648.8944,-262.3637"/>
</g>
<!-- 20 -->
<g id="node21" class="node">
<title>20</title>
<path fill="none" stroke="#d6d856" stroke-width="2" d="M936,-324C936,-324 852,-324 852,-324 846,-324 840,-318 840,-312 840,-312 840,-300 840,-300 840,-294 846,-288 852,-288 852,-288 936,-288 936,-288 942,-288 948,-294 948,-300 948,-300 948,-312 948,-312 948,-318 942,-324 936,-324"/>
<text text-anchor="middle" x="894" y="-303.5" font-family="sans" font-size="10.00" fill="#000000">GroupReadsByUmi</text>
</g>
<!-- 20&#45;&gt;15 -->
<g id="edge20" class="edge">
<title>20&#45;&gt;15</title>
<path fill="none" stroke="#c0c0c0" stroke-width="2" d="M892.2336,-287.8314C891.485,-280.131 890.5947,-270.9743 889.7627,-262.4166"/>
<polygon fill="#c0c0c0" stroke="#c0c0c0" stroke-width="2" points="893.2415,-262.0276 888.7902,-252.4133 886.2744,-262.7051 893.2415,-262.0276"/>
</g>
<!-- 21 -->
<g id="node22" class="node">
<title>21</title>
<path fill="none" stroke="#d6d856" stroke-width="2" d="M1185,-324C1185,-324 1101,-324 1101,-324 1095,-324 1089,-318 1089,-312 1089,-312 1089,-300 1089,-300 1089,-294 1095,-288 1101,-288 1101,-288 1185,-288 1185,-288 1191,-288 1197,-294 1197,-300 1197,-300 1197,-312 1197,-312 1197,-318 1191,-324 1185,-324"/>
<text text-anchor="middle" x="1143" y="-303.5" font-family="sans" font-size="10.00" fill="#000000">GroupReadsByUmi</text>
</g>
<!-- 21&#45;&gt;16 -->
<g id="edge21" class="edge">
<title>21&#45;&gt;16</title>
<path fill="none" stroke="#c0c0c0" stroke-width="2" d="M1140.2242,-287.8314C1139.0478,-280.131 1137.6489,-270.9743 1136.3414,-262.4166"/>
<polygon fill="#c0c0c0" stroke="#c0c0c0" stroke-width="2" points="1139.7833,-261.7699 1134.8131,-252.4133 1132.8636,-262.8272 1139.7833,-261.7699"/>
</g>
<!-- 22 -->
<g id="node23" class="node">
<title>22</title>
<path fill="none" stroke="#569ad8" stroke-width="2" d="M249.5,-396C249.5,-396 40.5,-396 40.5,-396 34.5,-396 28.5,-390 28.5,-384 28.5,-384 28.5,-372 28.5,-372 28.5,-366 34.5,-360 40.5,-360 40.5,-360 249.5,-360 249.5,-360 255.5,-360 261.5,-366 261.5,-372 261.5,-372 261.5,-384 261.5,-384 261.5,-390 255.5,-396 249.5,-396"/>
<text text-anchor="middle" x="145" y="-381" font-family="sans" font-size="10.00" fill="#000000">unmapped_bam_to_mapped_bam_with_umi</text>
<text text-anchor="middle" x="145" y="-370" font-family="sans" font-size="10.00" fill="#000000">samplename: tumor_sample4</text>
</g>
<!-- 22&#45;&gt;17 -->
<g id="edge22" class="edge">
<title>22&#45;&gt;17</title>
<path fill="none" stroke="#c0c0c0" stroke-width="2" d="M146.7664,-359.8314C147.515,-352.131 148.4053,-342.9743 149.2373,-334.4166"/>
<polygon fill="#c0c0c0" stroke="#c0c0c0" stroke-width="2" points="152.7256,-334.7051 150.2098,-324.4133 145.7585,-334.0276 152.7256,-334.7051"/>
</g>
<!-- 23 -->
<g id="node24" class="node">
<title>23</title>
<path fill="none" stroke="#569ad8" stroke-width="2" d="M500.5,-396C500.5,-396 291.5,-396 291.5,-396 285.5,-396 279.5,-390 279.5,-384 279.5,-384 279.5,-372 279.5,-372 279.5,-366 285.5,-360 291.5,-360 291.5,-360 500.5,-360 500.5,-360 506.5,-360 512.5,-366 512.5,-372 512.5,-372 512.5,-384 512.5,-384 512.5,-390 506.5,-396 500.5,-396"/>
<text text-anchor="middle" x="396" y="-381" font-family="sans" font-size="10.00" fill="#000000">unmapped_bam_to_mapped_bam_with_umi</text>
<text text-anchor="middle" x="396" y="-370" font-family="sans" font-size="10.00" fill="#000000">samplename: tumor_sample3</text>
</g>
<!-- 23&#45;&gt;18 -->
<g id="edge23" class="edge">
<title>23&#45;&gt;18</title>
<path fill="none" stroke="#c0c0c0" stroke-width="2" d="M396.5047,-359.8314C396.7186,-352.131 396.9729,-342.9743 397.2106,-334.4166"/>
<polygon fill="#c0c0c0" stroke="#c0c0c0" stroke-width="2" points="400.7094,-334.5066 397.4885,-324.4133 393.7121,-334.3122 400.7094,-334.5066"/>
</g>
<!-- 24 -->
<g id="node25" class="node">
<title>24</title>
<path fill="none" stroke="#569ad8" stroke-width="2" d="M751.5,-396C751.5,-396 542.5,-396 542.5,-396 536.5,-396 530.5,-390 530.5,-384 530.5,-384 530.5,-372 530.5,-372 530.5,-366 536.5,-360 542.5,-360 542.5,-360 751.5,-360 751.5,-360 757.5,-360 763.5,-366 763.5,-372 763.5,-372 763.5,-384 763.5,-384 763.5,-390 757.5,-396 751.5,-396"/>
<text text-anchor="middle" x="647" y="-381" font-family="sans" font-size="10.00" fill="#000000">unmapped_bam_to_mapped_bam_with_umi</text>
<text text-anchor="middle" x="647" y="-370" font-family="sans" font-size="10.00" fill="#000000">samplename: tumor_sample5</text>
</g>
<!-- 24&#45;&gt;19 -->
<g id="edge24" class="edge">
<title>24&#45;&gt;19</title>
<path fill="none" stroke="#c0c0c0" stroke-width="2" d="M646.7477,-359.8314C646.6407,-352.131 646.5135,-342.9743 646.3947,-334.4166"/>
<polygon fill="#c0c0c0" stroke="#c0c0c0" stroke-width="2" points="649.8944,-334.3637 646.2557,-324.4133 642.8951,-334.4609 649.8944,-334.3637"/>
</g>
<!-- 25 -->
<g id="node26" class="node">
<title>25</title>
<path fill="none" stroke="#569ad8" stroke-width="2" d="M1002.5,-396C1002.5,-396 793.5,-396 793.5,-396 787.5,-396 781.5,-390 781.5,-384 781.5,-384 781.5,-372 781.5,-372 781.5,-366 787.5,-360 793.5,-360 793.5,-360 1002.5,-360 1002.5,-360 1008.5,-360 1014.5,-366 1014.5,-372 1014.5,-372 1014.5,-384 1014.5,-384 1014.5,-390 1008.5,-396 1002.5,-396"/>
<text text-anchor="middle" x="898" y="-381" font-family="sans" font-size="10.00" fill="#000000">unmapped_bam_to_mapped_bam_with_umi</text>
<text text-anchor="middle" x="898" y="-370" font-family="sans" font-size="10.00" fill="#000000">samplename: tumor_sample1</text>
</g>
<!-- 25&#45;&gt;20 -->
<g id="edge25" class="edge">
<title>25&#45;&gt;20</title>
<path fill="none" stroke="#c0c0c0" stroke-width="2" d="M896.9906,-359.8314C896.5628,-352.131 896.0541,-342.9743 895.5787,-334.4166"/>
<polygon fill="#c0c0c0" stroke="#c0c0c0" stroke-width="2" points="899.0724,-334.2037 895.023,-324.4133 892.0831,-334.592 899.0724,-334.2037"/>
</g>
<!-- 26 -->
<g id="node27" class="node">
<title>26</title>
<path fill="none" stroke="#569ad8" stroke-width="2" d="M1253.5,-396C1253.5,-396 1044.5,-396 1044.5,-396 1038.5,-396 1032.5,-390 1032.5,-384 1032.5,-384 1032.5,-372 1032.5,-372 1032.5,-366 1038.5,-360 1044.5,-360 1044.5,-360 1253.5,-360 1253.5,-360 1259.5,-360 1265.5,-366 1265.5,-372 1265.5,-372 1265.5,-384 1265.5,-384 1265.5,-390 1259.5,-396 1253.5,-396"/>
<text text-anchor="middle" x="1149" y="-381" font-family="sans" font-size="10.00" fill="#000000">unmapped_bam_to_mapped_bam_with_umi</text>
<text text-anchor="middle" x="1149" y="-370" font-family="sans" font-size="10.00" fill="#000000">samplename: tumor_sample2</text>
</g>
<!-- 26&#45;&gt;21 -->
<g id="edge26" class="edge">
<title>26&#45;&gt;21</title>
<path fill="none" stroke="#c0c0c0" stroke-width="2" d="M1147.4859,-359.8314C1146.8442,-352.131 1146.0812,-342.9743 1145.3681,-334.4166"/>
<polygon fill="#c0c0c0" stroke="#c0c0c0" stroke-width="2" points="1148.8529,-334.088 1144.5344,-324.4133 1141.8771,-334.6694 1148.8529,-334.088"/>
</g>
<!-- 27&#45;&gt;22 -->
<g id="edge27" class="edge">
<title>27&#45;&gt;22</title>
<path fill="none" stroke="#c0c0c0" stroke-width="2" d="M426.6047,-431.9243C372.5306,-421.5697 304.5856,-408.5589 248.984,-397.9118"/>
<polygon fill="#c0c0c0" stroke="#c0c0c0" stroke-width="2" points="249.5878,-394.4639 239.108,-396.0207 248.2713,-401.339 249.5878,-394.4639"/>
</g>
<!-- 27&#45;&gt;23 -->
<g id="edge28" class="edge">
<title>27&#45;&gt;23</title>
<path fill="none" stroke="#c0c0c0" stroke-width="2" d="M489.4572,-431.8314C473.3209,-422.5368 453.5014,-411.1208 436.2728,-401.1971"/>
<polygon fill="#c0c0c0" stroke="#c0c0c0" stroke-width="2" points="437.945,-398.1212 427.5327,-396.1628 434.4511,-404.187 437.945,-398.1212"/>
</g>
<!-- 27&#45;&gt;24 -->
<g id="edge29" class="edge">
<title>27&#45;&gt;24</title>
<path fill="none" stroke="#c0c0c0" stroke-width="2" d="M552.7951,-431.8314C569.0605,-422.5368 589.0386,-411.1208 606.4051,-401.1971"/>
<polygon fill="#c0c0c0" stroke="#c0c0c0" stroke-width="2" points="608.2691,-404.1631 615.2151,-396.1628 604.7961,-398.0854 608.2691,-404.1631"/>
</g>
<!-- 27&#45;&gt;25 -->
<g id="edge30" class="edge">
<title>27&#45;&gt;25</title>
<path fill="none" stroke="#c0c0c0" stroke-width="2" d="M615.1605,-432.0171C669.4765,-421.6438 737.8727,-408.5813 793.8,-397.9003"/>
<polygon fill="#c0c0c0" stroke="#c0c0c0" stroke-width="2" points="794.5674,-401.3171 803.7333,-396.0032 793.2542,-394.4413 794.5674,-401.3171"/>
</g>
<!-- 27&#45;&gt;26 -->
<g id="edge31" class="edge">
<title>27&#45;&gt;26</title>
<path fill="none" stroke="#c0c0c0" stroke-width="2" d="M615.0219,-440.8705C713.7046,-431.0636 873.6289,-414.5366 1022.103,-396.0889"/>
<polygon fill="#c0c0c0" stroke="#c0c0c0" stroke-width="2" points="1022.8288,-399.5256 1032.3185,-394.8143 1021.9621,-392.5794 1022.8288,-399.5256"/>
</g>
</g>
</svg>
