<?xml version="1.0" encoding="UTF-8" standalone="no"?>
<!DOCTYPE svg PUBLIC "-//W3C//DTD SVG 1.1//EN"
 "http://www.w3.org/Graphics/SVG/1.1/DTD/svg11.dtd">
<!-- Generated by graphviz version 2.40.1 (20161225.0304)
 -->
<!-- Title: snakemake_dag Pages: 1 -->
<svg width="1263pt" height="332pt"
 viewBox="0.00 0.00 1263.03 332.00" xmlns="http://www.w3.org/2000/svg" xmlns:xlink="http://www.w3.org/1999/xlink">
<g id="graph0" class="graph" transform="scale(1 1) rotate(0) translate(4 328)">
<title>snakemake_dag</title>
<polygon fill="#ffffff" stroke="transparent" points="-4,4 -4,-328 1259.0337,-328 1259.0337,4 -4,4"/>
<!-- 0 -->
<g id="node1" class="node">
<title>0</title>
<path fill="none" stroke="#56d88a" stroke-width="2" d="M525.5337,-36C525.5337,-36 495.5337,-36 495.5337,-36 489.5337,-36 483.5337,-30 483.5337,-24 483.5337,-24 483.5337,-12 483.5337,-12 483.5337,-6 489.5337,0 495.5337,0 495.5337,0 525.5337,0 525.5337,0 531.5337,0 537.5337,-6 537.5337,-12 537.5337,-12 537.5337,-24 537.5337,-24 537.5337,-30 531.5337,-36 525.5337,-36"/>
<text text-anchor="middle" x="510.5337" y="-15.5" font-family="sans" font-size="10.00" fill="#000000">all</text>
</g>
<!-- 1 -->
<g id="node2" class="node">
<title>1</title>
<path fill="none" stroke="#56c1d8" stroke-width="2" d="M238.5337,-108C238.5337,-108 154.5337,-108 154.5337,-108 148.5337,-108 142.5337,-102 142.5337,-96 142.5337,-96 142.5337,-84 142.5337,-84 142.5337,-78 148.5337,-72 154.5337,-72 154.5337,-72 238.5337,-72 238.5337,-72 244.5337,-72 250.5337,-78 250.5337,-84 250.5337,-84 250.5337,-96 250.5337,-96 250.5337,-102 244.5337,-108 238.5337,-108"/>
<text text-anchor="middle" x="196.5337" y="-87.5" font-family="sans" font-size="10.00" fill="#000000">GroupReadsByUmi</text>
</g>
<!-- 1&#45;&gt;0 -->
<g id="edge1" class="edge">
<title>1&#45;&gt;0</title>
<path fill="none" stroke="#c0c0c0" stroke-width="2" d="M250.8699,-77.5408C314.5218,-62.9454 418.2651,-39.1571 473.3798,-26.5194"/>
<polygon fill="#c0c0c0" stroke="#c0c0c0" stroke-width="2" points="474.4416,-29.8668 483.4064,-24.2203 472.8771,-23.0439 474.4416,-29.8668"/>
</g>
<!-- 2 -->
<g id="node3" class="node">
<title>2</title>
<path fill="none" stroke="#56c1d8" stroke-width="2" d="M458.5337,-108C458.5337,-108 374.5337,-108 374.5337,-108 368.5337,-108 362.5337,-102 362.5337,-96 362.5337,-96 362.5337,-84 362.5337,-84 362.5337,-78 368.5337,-72 374.5337,-72 374.5337,-72 458.5337,-72 458.5337,-72 464.5337,-72 470.5337,-78 470.5337,-84 470.5337,-84 470.5337,-96 470.5337,-96 470.5337,-102 464.5337,-108 458.5337,-108"/>
<text text-anchor="middle" x="416.5337" y="-87.5" font-family="sans" font-size="10.00" fill="#000000">GroupReadsByUmi</text>
</g>
<!-- 2&#45;&gt;0 -->
<g id="edge2" class="edge">
<title>2&#45;&gt;0</title>
<path fill="none" stroke="#c0c0c0" stroke-width="2" d="M440.2539,-71.8314C451.9431,-62.8779 466.2025,-51.9558 478.8146,-42.2955"/>
<polygon fill="#c0c0c0" stroke="#c0c0c0" stroke-width="2" points="481.0106,-45.0222 486.8211,-36.1628 476.754,-39.4651 481.0106,-45.0222"/>
</g>
<!-- 3 -->
<g id="node4" class="node">
<title>3</title>
<path fill="none" stroke="#56c1d8" stroke-width="2" d="M646.5337,-108C646.5337,-108 562.5337,-108 562.5337,-108 556.5337,-108 550.5337,-102 550.5337,-96 550.5337,-96 550.5337,-84 550.5337,-84 550.5337,-78 556.5337,-72 562.5337,-72 562.5337,-72 646.5337,-72 646.5337,-72 652.5337,-72 658.5337,-78 658.5337,-84 658.5337,-84 658.5337,-96 658.5337,-96 658.5337,-102 652.5337,-108 646.5337,-108"/>
<text text-anchor="middle" x="604.5337" y="-87.5" font-family="sans" font-size="10.00" fill="#000000">GroupReadsByUmi</text>
</g>
<!-- 3&#45;&gt;0 -->
<g id="edge3" class="edge">
<title>3&#45;&gt;0</title>
<path fill="none" stroke="#c0c0c0" stroke-width="2" d="M580.8135,-71.8314C569.1243,-62.8779 554.8649,-51.9558 542.2528,-42.2955"/>
<polygon fill="#c0c0c0" stroke="#c0c0c0" stroke-width="2" points="544.3134,-39.4651 534.2463,-36.1628 540.0568,-45.0222 544.3134,-39.4651"/>
</g>
<!-- 4 -->
<g id="node5" class="node">
<title>4</title>
<path fill="none" stroke="#56c1d8" stroke-width="2" d="M866.5337,-108C866.5337,-108 782.5337,-108 782.5337,-108 776.5337,-108 770.5337,-102 770.5337,-96 770.5337,-96 770.5337,-84 770.5337,-84 770.5337,-78 776.5337,-72 782.5337,-72 782.5337,-72 866.5337,-72 866.5337,-72 872.5337,-72 878.5337,-78 878.5337,-84 878.5337,-84 878.5337,-96 878.5337,-96 878.5337,-102 872.5337,-108 866.5337,-108"/>
<text text-anchor="middle" x="824.5337" y="-87.5" font-family="sans" font-size="10.00" fill="#000000">GroupReadsByUmi</text>
</g>
<!-- 4&#45;&gt;0 -->
<g id="edge4" class="edge">
<title>4&#45;&gt;0</title>
<path fill="none" stroke="#c0c0c0" stroke-width="2" d="M770.1976,-77.5408C706.5456,-62.9454 602.8023,-39.1571 547.6876,-26.5194"/>
<polygon fill="#c0c0c0" stroke="#c0c0c0" stroke-width="2" points="548.1904,-23.0439 537.661,-24.2203 546.6258,-29.8668 548.1904,-23.0439"/>
</g>
<!-- 5 -->
<g id="node6" class="node">
<title>5</title>
<path fill="none" stroke="#d85656" stroke-width="2" d="M248.5337,-324C248.5337,-324 126.5337,-324 126.5337,-324 120.5337,-324 114.5337,-318 114.5337,-312 114.5337,-312 114.5337,-300 114.5337,-300 114.5337,-294 120.5337,-288 126.5337,-288 126.5337,-288 248.5337,-288 248.5337,-288 254.5337,-288 260.5337,-294 260.5337,-300 260.5337,-300 260.5337,-312 260.5337,-312 260.5337,-318 254.5337,-324 248.5337,-324"/>
<text text-anchor="middle" x="187.5337" y="-303.5" font-family="sans" font-size="10.00" fill="#000000">extract_illumina_barcodes</text>
</g>
<!-- 5&#45;&gt;0 -->
<g id="edge5" class="edge">
<title>5&#45;&gt;0</title>
<path fill="none" stroke="#c0c0c0" stroke-width="2" d="M137.1352,-287.9249C72.0376,-261.5321 -28.7498,-208.5014 8.5337,-144 40.6181,-88.4931 72.9311,-92.9224 133.5337,-72 196.0283,-50.4244 390.9489,-29.6043 473.2586,-21.5259"/>
<polygon fill="#c0c0c0" stroke="#c0c0c0" stroke-width="2" points="473.7984,-24.99 483.4125,-20.538 473.1206,-18.0229 473.7984,-24.99"/>
</g>
<!-- 12 -->
<g id="node13" class="node">
<title>12</title>
<path fill="none" stroke="#d8bc56" stroke-width="2" d="M592.5337,-252C592.5337,-252 428.5337,-252 428.5337,-252 422.5337,-252 416.5337,-246 416.5337,-240 416.5337,-240 416.5337,-228 416.5337,-228 416.5337,-222 422.5337,-216 428.5337,-216 428.5337,-216 592.5337,-216 592.5337,-216 598.5337,-216 604.5337,-222 604.5337,-228 604.5337,-228 604.5337,-240 604.5337,-240 604.5337,-246 598.5337,-252 592.5337,-252"/>
<text text-anchor="middle" x="510.5337" y="-231.5" font-family="sans" font-size="10.00" fill="#000000">illumina_basecalls_to_sam_demux</text>
</g>
<!-- 5&#45;&gt;12 -->
<g id="edge17" class="edge">
<title>5&#45;&gt;12</title>
<path fill="none" stroke="#c0c0c0" stroke-width="2" d="M260.8274,-289.6621C307.9416,-279.1599 369.503,-265.4372 419.7111,-254.2453"/>
<polygon fill="#c0c0c0" stroke="#c0c0c0" stroke-width="2" points="420.5948,-257.6343 429.5938,-252.0423 419.0718,-250.802 420.5948,-257.6343"/>
</g>
<!-- 6 -->
<g id="node7" class="node">
<title>6</title>
<path fill="none" stroke="#56c1d8" stroke-width="2" d="M1101.5337,-108C1101.5337,-108 1017.5337,-108 1017.5337,-108 1011.5337,-108 1005.5337,-102 1005.5337,-96 1005.5337,-96 1005.5337,-84 1005.5337,-84 1005.5337,-78 1011.5337,-72 1017.5337,-72 1017.5337,-72 1101.5337,-72 1101.5337,-72 1107.5337,-72 1113.5337,-78 1113.5337,-84 1113.5337,-84 1113.5337,-96 1113.5337,-96 1113.5337,-102 1107.5337,-108 1101.5337,-108"/>
<text text-anchor="middle" x="1059.5337" y="-87.5" font-family="sans" font-size="10.00" fill="#000000">GroupReadsByUmi</text>
</g>
<!-- 6&#45;&gt;0 -->
<g id="edge6" class="edge">
<title>6&#45;&gt;0</title>
<path fill="none" stroke="#c0c0c0" stroke-width="2" d="M1005.391,-82.8993C894.1846,-68.3149 642.5394,-35.3122 547.6651,-22.8697"/>
<polygon fill="#c0c0c0" stroke="#c0c0c0" stroke-width="2" points="548.0422,-19.3893 537.672,-21.5591 547.1319,-26.3298 548.0422,-19.3893"/>
</g>
<!-- 7 -->
<g id="node8" class="node">
<title>7</title>
<path fill="none" stroke="#88d856" stroke-width="2" d="M239.0337,-180C239.0337,-180 30.0337,-180 30.0337,-180 24.0337,-180 18.0337,-174 18.0337,-168 18.0337,-168 18.0337,-156 18.0337,-156 18.0337,-150 24.0337,-144 30.0337,-144 30.0337,-144 239.0337,-144 239.0337,-144 245.0337,-144 251.0337,-150 251.0337,-156 251.0337,-156 251.0337,-168 251.0337,-168 251.0337,-174 245.0337,-180 239.0337,-180"/>
<text text-anchor="middle" x="134.5337" y="-165" font-family="sans" font-size="10.00" fill="#000000">unmapped_bam_to_mapped_bam_with_umi</text>
<text text-anchor="middle" x="134.5337" y="-154" font-family="sans" font-size="10.00" fill="#000000">samplename: tumor_sample2</text>
</g>
<!-- 7&#45;&gt;1 -->
<g id="edge7" class="edge">
<title>7&#45;&gt;1</title>
<path fill="none" stroke="#c0c0c0" stroke-width="2" d="M150.1789,-143.8314C157.3928,-135.454 166.0907,-125.3531 173.9942,-116.1749"/>
<polygon fill="#c0c0c0" stroke="#c0c0c0" stroke-width="2" points="176.8048,-118.2748 180.6778,-108.4133 171.5004,-113.7071 176.8048,-118.2748"/>
</g>
<!-- 8 -->
<g id="node9" class="node">
<title>8</title>
<path fill="none" stroke="#88d856" stroke-width="2" d="M490.0337,-180C490.0337,-180 281.0337,-180 281.0337,-180 275.0337,-180 269.0337,-174 269.0337,-168 269.0337,-168 269.0337,-156 269.0337,-156 269.0337,-150 275.0337,-144 281.0337,-144 281.0337,-144 490.0337,-144 490.0337,-144 496.0337,-144 502.0337,-150 502.0337,-156 502.0337,-156 502.0337,-168 502.0337,-168 502.0337,-174 496.0337,-180 490.0337,-180"/>
<text text-anchor="middle" x="385.5337" y="-165" font-family="sans" font-size="10.00" fill="#000000">unmapped_bam_to_mapped_bam_with_umi</text>
<text text-anchor="middle" x="385.5337" y="-154" font-family="sans" font-size="10.00" fill="#000000">samplename: tumor_sample5</text>
</g>
<!-- 8&#45;&gt;2 -->
<g id="edge8" class="edge">
<title>8&#45;&gt;2</title>
<path fill="none" stroke="#c0c0c0" stroke-width="2" d="M393.3563,-143.8314C396.7446,-135.9617 400.7878,-126.5712 404.5413,-117.8533"/>
<polygon fill="#c0c0c0" stroke="#c0c0c0" stroke-width="2" points="407.8658,-118.9822 408.6058,-108.4133 401.4364,-116.214 407.8658,-118.9822"/>
</g>
<!-- 9 -->
<g id="node10" class="node">
<title>9</title>
<path fill="none" stroke="#88d856" stroke-width="2" d="M741.0337,-180C741.0337,-180 532.0337,-180 532.0337,-180 526.0337,-180 520.0337,-174 520.0337,-168 520.0337,-168 520.0337,-156 520.0337,-156 520.0337,-150 526.0337,-144 532.0337,-144 532.0337,-144 741.0337,-144 741.0337,-144 747.0337,-144 753.0337,-150 753.0337,-156 753.0337,-156 753.0337,-168 753.0337,-168 753.0337,-174 747.0337,-180 741.0337,-180"/>
<text text-anchor="middle" x="636.5337" y="-165" font-family="sans" font-size="10.00" fill="#000000">unmapped_bam_to_mapped_bam_with_umi</text>
<text text-anchor="middle" x="636.5337" y="-154" font-family="sans" font-size="10.00" fill="#000000">samplename: tumor_sample4</text>
</g>
<!-- 9&#45;&gt;3 -->
<g id="edge9" class="edge">
<title>9&#45;&gt;3</title>
<path fill="none" stroke="#c0c0c0" stroke-width="2" d="M628.4588,-143.8314C624.9235,-135.8771 620.6977,-126.369 616.7881,-117.5723"/>
<polygon fill="#c0c0c0" stroke="#c0c0c0" stroke-width="2" points="619.9772,-116.1299 612.7174,-108.4133 613.5805,-118.9729 619.9772,-116.1299"/>
</g>
<!-- 10 -->
<g id="node11" class="node">
<title>10</title>
<path fill="none" stroke="#88d856" stroke-width="2" d="M992.0337,-180C992.0337,-180 783.0337,-180 783.0337,-180 777.0337,-180 771.0337,-174 771.0337,-168 771.0337,-168 771.0337,-156 771.0337,-156 771.0337,-150 777.0337,-144 783.0337,-144 783.0337,-144 992.0337,-144 992.0337,-144 998.0337,-144 1004.0337,-150 1004.0337,-156 1004.0337,-156 1004.0337,-168 1004.0337,-168 1004.0337,-174 998.0337,-180 992.0337,-180"/>
<text text-anchor="middle" x="887.5337" y="-165" font-family="sans" font-size="10.00" fill="#000000">unmapped_bam_to_mapped_bam_with_umi</text>
<text text-anchor="middle" x="887.5337" y="-154" font-family="sans" font-size="10.00" fill="#000000">samplename: tumor_sample3</text>
</g>
<!-- 10&#45;&gt;4 -->
<g id="edge10" class="edge">
<title>10&#45;&gt;4</title>
<path fill="none" stroke="#c0c0c0" stroke-width="2" d="M871.6361,-143.8314C864.306,-135.454 855.4677,-125.3531 847.4368,-116.1749"/>
<polygon fill="#c0c0c0" stroke="#c0c0c0" stroke-width="2" points="849.8644,-113.6343 840.6453,-108.4133 844.5964,-118.2438 849.8644,-113.6343"/>
</g>
<!-- 11 -->
<g id="node12" class="node">
<title>11</title>
<path fill="none" stroke="#88d856" stroke-width="2" d="M1243.0337,-180C1243.0337,-180 1034.0337,-180 1034.0337,-180 1028.0337,-180 1022.0337,-174 1022.0337,-168 1022.0337,-168 1022.0337,-156 1022.0337,-156 1022.0337,-150 1028.0337,-144 1034.0337,-144 1034.0337,-144 1243.0337,-144 1243.0337,-144 1249.0337,-144 1255.0337,-150 1255.0337,-156 1255.0337,-156 1255.0337,-168 1255.0337,-168 1255.0337,-174 1249.0337,-180 1243.0337,-180"/>
<text text-anchor="middle" x="1138.5337" y="-165" font-family="sans" font-size="10.00" fill="#000000">unmapped_bam_to_mapped_bam_with_umi</text>
<text text-anchor="middle" x="1138.5337" y="-154" font-family="sans" font-size="10.00" fill="#000000">samplename: tumor_sample1</text>
</g>
<!-- 11&#45;&gt;6 -->
<g id="edge11" class="edge">
<title>11&#45;&gt;6</title>
<path fill="none" stroke="#c0c0c0" stroke-width="2" d="M1118.5987,-143.8314C1109.0555,-135.1337 1097.4738,-124.5783 1087.1031,-115.1265"/>
<polygon fill="#c0c0c0" stroke="#c0c0c0" stroke-width="2" points="1089.2109,-112.3121 1079.4624,-108.1628 1084.4957,-117.4857 1089.2109,-112.3121"/>
</g>
<!-- 12&#45;&gt;7 -->
<g id="edge12" class="edge">
<title>12&#45;&gt;7</title>
<path fill="none" stroke="#c0c0c0" stroke-width="2" d="M416.1384,-215.9243C362.0643,-205.5697 294.1193,-192.5589 238.5177,-181.9118"/>
<polygon fill="#c0c0c0" stroke="#c0c0c0" stroke-width="2" points="239.1216,-178.4639 228.6417,-180.0207 237.805,-185.339 239.1216,-178.4639"/>
</g>
<!-- 12&#45;&gt;8 -->
<g id="edge13" class="edge">
<title>12&#45;&gt;8</title>
<path fill="none" stroke="#c0c0c0" stroke-width="2" d="M478.9909,-215.8314C462.8546,-206.5368 443.0351,-195.1208 425.8065,-185.1971"/>
<polygon fill="#c0c0c0" stroke="#c0c0c0" stroke-width="2" points="427.4787,-182.1212 417.0664,-180.1628 423.9848,-188.187 427.4787,-182.1212"/>
</g>
<!-- 12&#45;&gt;9 -->
<g id="edge14" class="edge">
<title>12&#45;&gt;9</title>
<path fill="none" stroke="#c0c0c0" stroke-width="2" d="M542.3288,-215.8314C558.5942,-206.5368 578.5723,-195.1208 595.9388,-185.1971"/>
<polygon fill="#c0c0c0" stroke="#c0c0c0" stroke-width="2" points="597.8028,-188.1631 604.7488,-180.1628 594.3298,-182.0854 597.8028,-188.1631"/>
</g>
<!-- 12&#45;&gt;10 -->
<g id="edge15" class="edge">
<title>12&#45;&gt;10</title>
<path fill="none" stroke="#c0c0c0" stroke-width="2" d="M604.6942,-216.0171C659.0102,-205.6438 727.4064,-192.5813 783.3337,-181.9003"/>
<polygon fill="#c0c0c0" stroke="#c0c0c0" stroke-width="2" points="784.1011,-185.3171 793.267,-180.0032 782.7879,-178.4413 784.1011,-185.3171"/>
</g>
<!-- 12&#45;&gt;11 -->
<g id="edge16" class="edge">
<title>12&#45;&gt;11</title>
<path fill="none" stroke="#c0c0c0" stroke-width="2" d="M604.7474,-224.9097C703.6303,-215.1351 863.8762,-198.635 1011.6161,-180.2205"/>
<polygon fill="#c0c0c0" stroke="#c0c0c0" stroke-width="2" points="1012.2915,-183.6633 1021.7793,-178.9482 1011.4219,-176.7175 1012.2915,-183.6633"/>
</g>
</g>
</svg>
