<?xml version="1.0" encoding="UTF-8" standalone="no"?>
<!DOCTYPE svg PUBLIC "-//W3C//DTD SVG 1.1//EN"
 "http://www.w3.org/Graphics/SVG/1.1/DTD/svg11.dtd">
<!-- Generated by graphviz version 2.40.1 (20161225.0304)
 -->
<!-- Title: snakemake_dag Pages: 1 -->
<svg width="322pt" height="116pt"
 viewBox="0.00 0.00 321.50 116.00" xmlns="http://www.w3.org/2000/svg" xmlns:xlink="http://www.w3.org/1999/xlink">
<g id="graph0" class="graph" transform="scale(1 1) rotate(0) translate(4 112)">
<title>snakemake_dag</title>
<polygon fill="#ffffff" stroke="transparent" points="-4,4 -4,-112 317.5,-112 317.5,4 -4,4"/>
<!-- 0 -->
<g id="node1" class="node">
<title>0</title>
<path fill="none" stroke="#56d8a9" stroke-width="2" d="M172.5,-36C172.5,-36 142.5,-36 142.5,-36 136.5,-36 130.5,-30 130.5,-24 130.5,-24 130.5,-12 130.5,-12 130.5,-6 136.5,0 142.5,0 142.5,0 172.5,0 172.5,0 178.5,0 184.5,-6 184.5,-12 184.5,-12 184.5,-24 184.5,-24 184.5,-30 178.5,-36 172.5,-36"/>
<text text-anchor="middle" x="157.5" y="-15.5" font-family="sans" font-size="10.00" fill="#000000">all</text>
</g>
<!-- 1 -->
<g id="node2" class="node">
<title>1</title>
<path fill="none" stroke="#d85656" stroke-width="2" d="M137,-108C137,-108 12,-108 12,-108 6,-108 0,-102 0,-96 0,-96 0,-84 0,-84 0,-78 6,-72 12,-72 12,-72 137,-72 137,-72 143,-72 149,-78 149,-84 149,-84 149,-96 149,-96 149,-102 143,-108 137,-108"/>
<text text-anchor="middle" x="74.5" y="-87.5" font-family="sans" font-size="10.00" fill="#000000">illumina_basecalls_to_sam</text>
</g>
<!-- 1&#45;&gt;0 -->
<g id="edge1" class="edge">
<title>1&#45;&gt;0</title>
<path fill="none" stroke="#c0c0c0" stroke-width="2" d="M95.4444,-71.8314C105.5691,-63.0485 117.8777,-52.3712 128.8548,-42.8489"/>
<polygon fill="#c0c0c0" stroke="#c0c0c0" stroke-width="2" points="131.3019,-45.3595 136.5623,-36.1628 126.7149,-40.0718 131.3019,-45.3595"/>
</g>
<!-- 2 -->
<g id="node3" class="node">
<title>2</title>
<path fill="none" stroke="#afd856" stroke-width="2" d="M301.5,-108C301.5,-108 179.5,-108 179.5,-108 173.5,-108 167.5,-102 167.5,-96 167.5,-96 167.5,-84 167.5,-84 167.5,-78 173.5,-72 179.5,-72 179.5,-72 301.5,-72 301.5,-72 307.5,-72 313.5,-78 313.5,-84 313.5,-84 313.5,-96 313.5,-96 313.5,-102 307.5,-108 301.5,-108"/>
<text text-anchor="middle" x="240.5" y="-87.5" font-family="sans" font-size="10.00" fill="#000000">extract_illumina_barcodes</text>
</g>
<!-- 2&#45;&gt;0 -->
<g id="edge2" class="edge">
<title>2&#45;&gt;0</title>
<path fill="none" stroke="#c0c0c0" stroke-width="2" d="M219.5556,-71.8314C209.4309,-63.0485 197.1223,-52.3712 186.1452,-42.8489"/>
<polygon fill="#c0c0c0" stroke="#c0c0c0" stroke-width="2" points="188.2851,-40.0718 178.4377,-36.1628 183.6981,-45.3595 188.2851,-40.0718"/>
</g>
</g>
</svg>
